<svg width="626" height="374" viewBox="0 0 626 374" fill="none" xmlns="http://www.w3.org/2000/svg">
<rect y="0.474518" width="625" height="373" transform="rotate(-0.0435011 0 0.474518)" fill="#6192AD"/>
<rect y="0.474518" width="625" height="33.8337" transform="rotate(-0.0435011 0 0.474518)" fill="#282C34"/>
<rect x="269" y="265.244" width="323.972" height="82.0008" rx="11" transform="rotate(-0.0435011 269 265.244)" fill="#282C34"/>
<rect x="290" y="282.025" width="32.9636" height="48.0015" rx="11" transform="rotate(-0.0435011 290 282.025)" fill="#E06C75"/>
<rect x="340" y="282.025" width="32.9636" height="48.0015" rx="11" transform="rotate(-0.0435011 340 282.025)" fill="#98C379"/>
<rect x="390" y="282.025" width="32.9636" height="48.0015" rx="11" transform="rotate(-0.0435011 390 282.025)" fill="#E5C07B"/>
<rect x="440" y="282.025" width="32.9636" height="48.0015" rx="11" transform="rotate(-0.0435011 440 282.025)" fill="#61AFEF"/>
<rect x="490" y="282.025" width="32.9636" height="48.0015" rx="11" transform="rotate(-0.0435011 490 282.025)" fill="#C678BB"/>
<rect x="540" y="282.025" width="32.9636" height="48.0015" rx="11" transform="rotate(-0.0435011 540 282.025)" fill="#56B6C2"/>
<rect x="32" y="59.2467" width="324.863" height="180.927" rx="11" transform="rotate(-0.0435011 32 59.2467)" fill="#282C34"/>
<rect width="13.9929" height="14.9831" rx="3" transform="matrix(0.999999 -0.00112749 0.000511262 1 15 10.0158)" fill="#C9CFDB"/>
<path d="M55.7655 199.414C75.0366 165.196 85.121 146.334 91.8423 132.808C95.3856 135.483 99.9631 138.015 106.191 140.562L107.612 137.94C101.641 133.81 97.8272 130.138 94.6923 126.927C98.6632 118.493 101.309 112.037 104.489 104.278C104.987 103.064 105.498 101.817 106.03 100.525C106.5 101.619 106.954 102.679 107.398 103.715C115.043 121.537 119.511 131.955 143.573 176.151C140.546 174.808 136.969 173.603 132.627 172.543L131.602 175.343C139.369 179.21 143.91 182.867 147.773 185.977C148.481 186.548 149.166 187.099 149.844 187.631C151.887 191.382 154.016 195.276 156.315 199.454C142.11 191.621 130.469 186.512 119.548 184.182C119.78 182.704 119.916 181.157 119.958 179.587L119.958 179.584C120.099 173.908 118.804 168.605 116.525 164.604C114.265 160.634 110.893 157.735 106.828 157.412C102.726 157.059 99.1409 159.426 96.6399 163.055C94.1305 166.697 92.5626 171.779 92.4213 177.429L92.4208 177.448V177.467V177.984C92.3771 180.109 92.5803 182.157 92.945 184.076C81.8949 186.369 70.1238 191.513 55.7655 199.414Z" fill="#282C34" stroke="#61AFEF" stroke-width="3"/>
<rect x="176" y="99" width="128" height="3" rx="1.5" fill="#C9CFDB"/>
<rect x="176" y="114" width="71" height="3" rx="1.5" fill="#C9CFDB"/>
<rect x="176" y="129" width="90" height="3" rx="1.5" fill="#C9CFDB"/>
<rect x="177" y="144" width="81" height="3" rx="1.5" fill="#C9CFDB"/>
<rect x="177" y="159" width="35" height="3" rx="1.5" fill="#C9CFDB"/>
<rect x="176" y="174" width="104" height="3" rx="1.5" fill="#C9CFDB"/>
<path d="M180.456 198.152C182.688 198.152 184.504 196.336 184.504 194.104C184.504 191.872 182.688 190.056 180.456 190.056C178.224 190.056 176.408 191.872 176.408 194.104C176.408 196.336 178.224 198.152 180.456 198.152Z" fill="#E06C75"/>
<path d="M201.456 198.152C203.688 198.152 205.504 196.336 205.504 194.104C205.504 191.872 203.688 190.056 201.456 190.056C199.224 190.056 197.408 191.872 197.408 194.104C197.408 196.336 199.224 198.152 201.456 198.152Z" fill="#98C379"/>
<path d="M222.456 198.152C224.688 198.152 226.504 196.336 226.504 194.104C226.504 191.872 224.688 190.056 222.456 190.056C220.224 190.056 218.408 191.872 218.408 194.104C218.408 196.336 220.224 198.152 222.456 198.152Z" fill="#E5C07B"/>
<path d="M243.456 198.152C245.688 198.152 247.504 196.336 247.504 194.104C247.504 191.872 245.688 190.056 243.456 190.056C241.224 190.056 239.408 191.872 239.408 194.104C239.408 196.336 241.224 198.152 243.456 198.152Z" fill="#61AFEF"/>
<path d="M264.456 198.152C266.688 198.152 268.504 196.336 268.504 194.104C268.504 191.872 266.688 190.056 264.456 190.056C262.224 190.056 260.408 191.872 260.408 194.104C260.408 196.336 262.224 198.152 264.456 198.152Z" fill="#C678BB"/>
<path d="M285.456 198.152C287.688 198.152 289.504 196.336 289.504 194.104C289.504 191.872 287.688 190.056 285.456 190.056C283.224 190.056 281.408 191.872 281.408 194.104C281.408 196.336 283.224 198.152 285.456 198.152Z" fill="#56B6C2"/>
<path d="M306.456 198.152C308.688 198.152 310.504 196.336 310.504 194.104C310.504 191.872 308.688 190.056 306.456 190.056C304.224 190.056 302.408 191.872 302.408 194.104C302.408 196.336 304.224 198.152 306.456 198.152Z" fill="#C9CFDB"/>
<path d="M52.9119 13.9434C52.9158 13.9437 52.9139 13.9437 52.9119 13.9434V13.9434ZM61.5678 15.0244C61.3064 14.4166 60.7776 13.7611 60.3623 13.553C60.7003 14.194 60.8961 14.8373 60.9707 15.3169C60.9707 15.3169 60.9707 15.3202 60.972 15.3266C60.2926 13.6879 59.1406 13.0272 58.1997 11.5885C58.1522 11.5158 58.1046 11.4429 58.0583 11.3661C58.0337 11.3268 58.0125 11.2865 57.9921 11.2457C57.9532 11.1729 57.9231 11.0959 57.9024 11.0164C57.9026 11.0126 57.9014 11.0089 57.8988 11.006C57.8963 11.0031 57.8928 11.0012 57.8889 11.0007C57.8852 10.9998 57.8813 10.9998 57.8775 11.0007L57.8746 11.0024L57.8702 11.0048L57.8726 11.0014C56.5369 11.7587 55.9829 13.0842 55.8405 13.928C55.4279 13.9506 55.0236 14.0504 54.6501 14.2218C54.6161 14.2382 54.5896 14.266 54.5755 14.3001C54.5615 14.3342 54.561 14.3721 54.574 14.4066C54.5871 14.4432 54.6147 14.4732 54.6506 14.4902C54.6866 14.5071 54.7281 14.5095 54.7659 14.4969L54.7787 14.4919C55.1046 14.3429 55.4563 14.254 55.8159 14.2297L55.8509 14.2273C55.9002 14.2245 55.9494 14.2226 55.9987 14.2221C56.2907 14.2198 56.5815 14.2585 56.862 14.337C56.8785 14.3417 56.8945 14.347 56.9113 14.352C56.9578 14.3656 57.0039 14.3806 57.0497 14.3966C57.0832 14.4085 57.1164 14.4204 57.1494 14.4342C57.1763 14.4447 57.2031 14.4552 57.2295 14.4664C57.2709 14.4844 57.3119 14.503 57.3527 14.5224C57.3711 14.5312 57.3896 14.5401 57.4081 14.5493C57.4475 14.5694 57.4864 14.5903 57.5248 14.612C57.5496 14.6259 57.5743 14.6402 57.5987 14.6549C58.0339 14.9155 58.3951 15.2771 58.6495 15.7068C58.3293 15.4887 57.7541 15.2732 57.2007 15.3664C59.3618 16.4119 58.7815 20.012 55.7871 19.8761C55.5204 19.8656 55.2569 19.8164 55.0053 19.7302C54.9459 19.7085 54.887 19.6853 54.8289 19.6604C54.795 19.6454 54.761 19.6301 54.7275 19.6127C53.9925 19.2471 53.3865 18.554 53.3109 17.7118C53.3109 17.7118 53.588 16.7119 55.2967 16.7119C55.4814 16.7119 56.0093 16.2133 56.0191 16.0684C56.0169 16.0207 54.9713 15.6186 54.5637 15.2299C54.3457 15.0222 54.2422 14.9221 54.1506 14.8471C54.1011 14.8063 54.0492 14.7684 53.9952 14.7334C53.8582 14.2696 53.8523 13.7787 53.9782 13.312C53.3609 13.584 52.8809 14.014 52.5321 14.3935H52.5291C52.2909 14.1015 52.3074 13.1385 52.3215 12.9376C52.3185 12.925 52.1437 13.0253 52.1207 13.0403C51.9106 13.1856 51.7141 13.3486 51.5335 13.5273C51.3282 13.729 51.1406 13.9469 50.9727 14.1787C50.5863 14.7085 50.3123 15.3072 50.1665 15.9402C50.165 15.9466 50.1091 16.1835 50.068 16.476C50.0611 16.5216 50.0547 16.5672 50.0488 16.6128C50.0347 16.7007 50.0241 16.7966 50.0133 16.9465C50.0133 16.9522 50.0133 16.9579 50.0121 16.9636C50.0076 17.0282 50.0037 17.0926 50 17.1572V17.1867C50 20.3974 52.69 23 56.008 23C58.9795 23 61.4471 20.9125 61.9301 18.1704C61.9402 18.0961 61.9483 18.0212 61.9574 17.9462C62.0769 16.9491 61.9441 15.9013 61.5678 15.0251V15.0244Z" fill="#E06C75"/>
<path d="M86.5714 13H75.4286C75.1915 13 75 13.1828 75 13.4091V21.5909C75 21.8172 75.1915 22 75.4286 22H86.5714C86.8085 22 87 21.8172 87 21.5909V13.4091C87 13.1828 86.8085 13 86.5714 13ZM78.6696 14.8409C79.1424 14.8409 79.5268 15.2078 79.5268 15.6591C79.5268 16.1104 79.1424 16.4773 78.6696 16.4773C78.1969 16.4773 77.8125 16.1104 77.8125 15.6591C77.8125 15.2078 78.1969 14.8409 78.6696 14.8409ZM85.5522 20.4288C85.5327 20.4445 85.5081 20.4531 85.4826 20.4531H76.5161C76.4571 20.4531 76.4089 20.4071 76.4089 20.3509C76.4089 20.3266 76.4183 20.3036 76.4344 20.2844L78.7152 17.702C78.7527 17.6585 78.821 17.6534 78.8665 17.6892C78.8705 17.693 78.8759 17.6969 78.8799 17.702L80.2112 19.2105L82.3286 16.8135C82.3661 16.77 82.4344 16.7649 82.4799 16.8007C82.4839 16.8045 82.4893 16.8084 82.4933 16.8135L85.5683 20.2857C85.6031 20.3278 85.5978 20.393 85.5522 20.4288Z" fill="#56B6C2"/>
<path d="M137.7 12H127.3C126.955 12 126.625 12.1317 126.381 12.3661C126.137 12.6005 126 12.9185 126 13.25V20.75C126 21.0815 126.137 21.3995 126.381 21.6339C126.625 21.8683 126.955 22 127.3 22H137.7C138.045 22 138.375 21.8683 138.619 21.6339C138.863 21.3995 139 21.0815 139 20.75V13.25C139 12.9185 138.863 12.6005 138.619 12.3661C138.375 12.1317 138.045 12 137.7 12V12ZM128.869 19.3169L127.95 18.4331L129.44 17L127.95 15.5669L128.869 14.6831L131.279 17L128.869 19.3169V19.3169ZM137.05 19.5H132.5V18.25H137.05V19.5Z" fill="#98C379"/>
<path fill-rule="evenodd" clip-rule="evenodd" d="M108.382 11.4496C108.332 11.3464 108.262 11.2554 108.175 11.1826C108.089 11.1098 107.988 11.0568 107.88 11.0272C107.773 10.9976 107.66 10.9921 107.55 11.011C107.44 11.0299 107.335 11.0728 107.243 11.1368C106.971 11.3237 106.76 11.5902 106.597 11.8518C106.429 12.1199 106.28 12.4311 106.149 12.7585C105.886 13.4118 105.666 14.1951 105.489 14.9799C105.274 15.9391 105.113 16.9103 105.007 17.8887C104.687 17.6756 104.431 17.3757 104.265 17.0218C104.007 16.4693 103.952 15.7754 103.952 14.8654C103.952 14.7047 103.906 14.5477 103.819 14.4141C103.733 14.2805 103.61 14.1764 103.467 14.1149C103.323 14.0534 103.165 14.0373 103.013 14.0686C102.861 14.1 102.721 14.1773 102.611 14.2909C102.099 14.8186 101.694 15.4455 101.417 16.1357C101.141 16.8259 100.999 17.5658 101 18.3129C101 19.2481 101.223 20.169 101.65 20.9938C102.076 21.8187 102.693 22.522 103.445 23.0416C104.197 23.5612 105.061 23.881 105.961 23.9726C106.861 24.0643 107.769 23.925 108.605 23.567C109.44 23.2091 110.178 22.6436 110.752 21.9206C111.325 21.1976 111.718 20.3395 111.894 19.4221C112.071 18.5048 112.026 17.5567 111.763 16.6616C111.501 15.7666 111.029 14.9523 110.389 14.2909C109.924 13.8107 109.619 13.4906 109.33 13.099C109.045 12.7122 108.761 12.2353 108.382 11.4496V11.4496ZM108.166 21.6604C107.836 22.0008 107.416 22.2327 106.959 22.3265C106.502 22.4204 106.029 22.3721 105.598 22.1878C105.168 22.0035 104.8 21.6914 104.541 21.291C104.282 20.8905 104.143 20.4197 104.143 19.9379C104.143 19.9379 104.834 20.3441 106.107 20.3441C106.107 19.5316 106.5 17.0941 107.089 16.6878C107.482 17.5003 107.707 17.7384 108.167 18.2145C108.386 18.4406 108.56 18.7092 108.678 19.0049C108.797 19.3007 108.858 19.6177 108.857 19.9379C108.858 20.258 108.797 20.5751 108.678 20.8708C108.56 21.1666 108.386 21.4352 108.167 21.6612L108.166 21.6604Z" fill="#E5C07B"/>
<path d="M164.52 13.7439H159.135L157.376 12.0335C157.353 12.0122 157.324 12.0003 157.293 12H153.48C153.214 12 153 12.218 153 12.4878V21.5122C153 21.782 153.214 22 153.48 22H164.52C164.785 22 165 21.782 165 21.5122V14.2317C165 13.9619 164.785 13.7439 164.52 13.7439Z" fill="#C678BB"/>
<path d="M570.782 15.216C570.521 14.7027 570.11 14.446 569.55 14.446C568.99 14.446 568.575 14.7027 568.304 15.216C568.043 15.7293 567.912 16.6207 567.912 17.89C567.912 19.1593 568.043 20.0507 568.304 20.564C568.575 21.0773 568.99 21.334 569.55 21.334C570.11 21.334 570.521 21.0773 570.782 20.564C571.053 20.0507 571.188 19.1593 571.188 17.89C571.188 16.6207 571.053 15.7293 570.782 15.216ZM572.602 21.908C571.939 22.7293 570.922 23.14 569.55 23.14C568.178 23.14 567.156 22.7293 566.484 21.908C565.821 21.0867 565.49 19.7473 565.49 17.89C565.49 16.0327 565.821 14.6933 566.484 13.872C567.156 13.0507 568.178 12.64 569.55 12.64C570.922 12.64 571.939 13.0507 572.602 13.872C573.274 14.6933 573.61 16.0327 573.61 17.89C573.61 19.7473 573.274 21.0867 572.602 21.908ZM578.305 18.534C577.792 18.7487 577.428 18.982 577.213 19.234C577.008 19.4767 576.905 19.7613 576.905 20.088C576.905 20.4893 577.069 20.8207 577.395 21.082C577.722 21.3433 578.142 21.474 578.655 21.474C579.169 21.474 579.584 21.3433 579.901 21.082C580.228 20.8207 580.391 20.4893 580.391 20.088C580.391 19.7333 580.265 19.444 580.013 19.22C579.771 18.9867 579.276 18.7533 578.529 18.52C578.464 18.492 578.389 18.4967 578.305 18.534ZM578.655 14.306C578.198 14.306 577.834 14.418 577.563 14.642C577.302 14.8567 577.171 15.1367 577.171 15.482C577.171 15.7713 577.279 16.0233 577.493 16.238C577.717 16.4527 578.1 16.6487 578.641 16.826C578.716 16.854 578.791 16.854 578.865 16.826C579.733 16.49 580.167 16.042 580.167 15.482C580.167 15.1367 580.032 14.8567 579.761 14.642C579.491 14.418 579.122 14.306 578.655 14.306ZM581.637 22.342C580.928 22.874 579.934 23.14 578.655 23.14C577.377 23.14 576.378 22.874 575.659 22.342C574.95 21.81 574.595 21.096 574.595 20.2C574.595 19.1827 575.239 18.3753 576.527 17.778C576.537 17.778 576.541 17.7687 576.541 17.75C576.541 17.7407 576.537 17.736 576.527 17.736C575.445 17.12 574.903 16.294 574.903 15.258C574.903 14.4927 575.235 13.8673 575.897 13.382C576.56 12.8873 577.479 12.64 578.655 12.64C579.831 12.64 580.751 12.8873 581.413 13.382C582.076 13.8673 582.407 14.4927 582.407 15.258C582.407 16.1447 581.833 16.882 580.685 17.47C580.676 17.47 580.671 17.4747 580.671 17.484C580.671 17.5027 580.676 17.512 580.685 17.512C582.039 18.072 582.715 18.968 582.715 20.2C582.715 21.096 582.356 21.81 581.637 22.342ZM585.773 17.722C585.558 17.722 585.372 17.6473 585.213 17.498C585.054 17.3393 584.975 17.1527 584.975 16.938V15.86C584.975 15.6453 585.054 15.4587 585.213 15.3C585.372 15.1413 585.558 15.062 585.773 15.062H586.837C587.052 15.062 587.238 15.1413 587.397 15.3C587.556 15.4587 587.635 15.6453 587.635 15.86V16.938C587.635 17.1527 587.556 17.3393 587.397 17.498C587.238 17.6473 587.052 17.722 586.837 17.722H585.773ZM585.773 23C585.558 23 585.372 22.9207 585.213 22.762C585.054 22.6033 584.975 22.4167 584.975 22.202V21.138C584.975 20.9233 585.054 20.7367 585.213 20.578C585.372 20.4193 585.558 20.34 585.773 20.34H586.837C587.052 20.34 587.238 20.4193 587.397 20.578C587.556 20.7367 587.635 20.9233 587.635 21.138V22.202C587.635 22.4167 587.556 22.6033 587.397 22.762C587.238 22.9207 587.052 23 586.837 23H585.773ZM591.392 16.882C591.262 16.9847 591.122 16.9987 590.972 16.924C590.832 16.8493 590.762 16.728 590.762 16.56V15.538C590.762 15.006 590.977 14.586 591.406 14.278L592.82 13.242C593.24 12.934 593.721 12.78 594.262 12.78H595.144C595.359 12.78 595.546 12.8593 595.704 13.018C595.863 13.1767 595.942 13.3633 595.942 13.578V22.202C595.942 22.4167 595.863 22.6033 595.704 22.762C595.546 22.9207 595.359 23 595.144 23H594.262C594.048 23 593.861 22.9207 593.702 22.762C593.544 22.6033 593.464 22.4167 593.464 22.202V15.398H593.45H593.436L591.392 16.882ZM600.778 19.15V19.164C600.778 19.1733 600.782 19.178 600.792 19.178H603.102C603.186 19.178 603.228 19.1407 603.228 19.066V15.678C603.228 15.6687 603.223 15.664 603.214 15.664C603.195 15.664 603.186 15.6687 603.186 15.678L600.778 19.15ZM599.462 21.04C599.247 21.04 599.06 20.9607 598.902 20.802C598.752 20.6433 598.678 20.4567 598.678 20.242V19.976C598.678 19.4533 598.832 18.9727 599.14 18.534L602.766 13.424C603.074 12.9947 603.489 12.78 604.012 12.78H604.712C604.926 12.78 605.108 12.8593 605.258 13.018C605.416 13.1767 605.496 13.3633 605.496 13.578V19.066C605.496 19.1407 605.538 19.178 605.622 19.178H606.182C606.396 19.178 606.583 19.2573 606.742 19.416C606.9 19.5747 606.98 19.7613 606.98 19.976V20.242C606.98 20.4567 606.9 20.6433 606.742 20.802C606.583 20.9607 606.396 21.04 606.182 21.04H605.622C605.538 21.04 605.496 21.082 605.496 21.166V22.202C605.496 22.4167 605.416 22.6033 605.258 22.762C605.108 22.9207 604.926 23 604.712 23H604.012C603.797 23 603.61 22.9207 603.452 22.762C603.302 22.6033 603.228 22.4167 603.228 22.202V21.166C603.228 21.082 603.186 21.04 603.102 21.04H599.462Z" fill="#C9CFDB"/>
<path d="M521.25 12C522.006 12 522.731 12.2897 523.265 12.8055C523.8 13.3212 524.1 14.0207 524.1 14.75V15.6667H525.05C525.302 15.6667 525.544 15.7632 525.722 15.9352C525.9 16.1071 526 16.3402 526 16.5833V18.4167C526 18.6598 525.9 18.8929 525.722 19.0648C525.544 19.2368 525.302 19.3333 525.05 19.3333H524.1V20.25C524.1 20.9793 523.8 21.6788 523.265 22.1945C522.731 22.7103 522.006 23 521.25 23H509.85C509.094 23 508.369 22.7103 507.835 22.1945C507.3 21.6788 507 20.9793 507 20.25V14.75C507 14.0207 507.3 13.3212 507.835 12.8055C508.369 12.2897 509.094 12 509.85 12H521.25ZM516.5 14.75H510.8C510.548 14.75 510.306 14.8466 510.128 15.0185C509.95 15.1904 509.85 15.4236 509.85 15.6667V19.3333C509.85 19.5764 509.95 19.8096 510.128 19.9815C510.306 20.1534 510.548 20.25 510.8 20.25H516.5C516.752 20.25 516.994 20.1534 517.172 19.9815C517.35 19.8096 517.45 19.5764 517.45 19.3333V15.6667C517.45 15.4236 517.35 15.1904 517.172 15.0185C516.994 14.8466 516.752 14.75 516.5 14.75Z" fill="#C9CFDB"/>
<path d="M545.506 23.993L553 13.8108C552.71 13.5719 549.823 11 545.5 11C541.17 11 538.29 13.5719 538 13.8108L545.494 23.993L545.5 24L545.506 23.993Z" fill="#C9CFDB"/>
</svg>
