<?xml version="1.0" encoding="UTF-8" standalone="no"?>
<svg
   width="115"
   height="50"
   viewBox="0 0 115 50"
   fill="none"
   xmlns="http://www.w3.org/2000/svg">
  <path
     d="M44.3555 14.7734C44.2852 14.8203 44.2266 14.8594 44.1797 14.8906C44.1406 14.9219 44.1211 14.9609 44.1211 15.0078C44.1211 15.0391 44.1445 15.0781 44.1914 15.125C44.2148 15.1641 44.2344 15.1953 44.25 15.2188C44.2734 15.2422 44.2852 15.2617 44.2852 15.2773C44.2852 15.3164 44.2539 15.3438 44.1914 15.3594C44.1289 15.375 44.0078 15.3945 43.8281 15.418C43.6875 15.4336 43.5742 15.4531 43.4883 15.4766C43.4102 15.5 43.3398 15.5234 43.2773 15.5469C43.2227 15.5625 43.168 15.5781 43.1133 15.5938C43.0664 15.6016 43.0039 15.6055 42.9258 15.6055C42.8789 15.6055 42.7383 15.6211 42.5039 15.6523C42.2773 15.6836 41.9883 15.7305 41.6367 15.793C41.2852 15.8477 40.8867 15.9102 40.4414 15.9805C39.9961 16.0508 39.5352 16.1289 39.0586 16.2148C38.5898 16.293 38.1172 16.375 37.6406 16.4609C37.1641 16.5469 36.7188 16.6289 36.3047 16.707C35.8984 16.7852 35.5312 16.8594 35.2031 16.9297C34.8828 16.9922 34.6406 17.0469 34.4766 17.0938C34.2188 17.1641 33.9609 17.2227 33.7031 17.2695C33.4453 17.3164 33.1992 17.3555 32.9648 17.3867C32.7305 17.418 32.5156 17.4414 32.3203 17.457C32.1172 17.4727 31.9453 17.4805 31.8047 17.4805C31.6172 17.4805 31.4922 17.4648 31.4297 17.4336C31.2812 17.3477 31.1914 17.2266 31.1602 17.0703C31.1289 16.9141 31.1133 16.7617 31.1133 16.6133C31.1133 16.4492 31.1094 16.3125 31.1016 16.2031C31.0938 16.0938 31.0898 15.9844 31.0898 15.875C31.0898 15.7422 31.1094 15.6289 31.1484 15.5352C31.1797 15.4336 31.2617 15.3711 31.3945 15.3477L32.2383 15.1719C32.2227 15.125 32.2109 15.0742 32.2031 15.0195C32.1953 14.957 32.1914 14.8906 32.1914 14.8203C32.1914 14.7812 32.1914 14.7422 32.1914 14.7031C32.1914 14.6641 32.1992 14.6211 32.2148 14.5742C32.2305 14.457 32.3125 14.2617 32.4609 13.9883C32.6016 13.707 32.7891 13.3789 33.0234 13.0039C33.2578 12.6211 33.5273 12.1992 33.832 11.7383C34.1367 11.2773 34.457 10.8008 34.793 10.3086C35.1289 9.81641 35.4688 9.32031 35.8125 8.82031C36.1641 8.32031 36.5 7.83984 36.8203 7.37891C37.1484 6.91797 37.4492 6.48828 37.7227 6.08984C38.0039 5.69141 38.2422 5.35156 38.4375 5.07031C38.8281 4.5 39.2148 3.94922 39.5977 3.41797C39.9883 2.88672 40.3477 2.41016 40.6758 1.98828C41.0039 1.56641 41.2852 1.21484 41.5195 0.933594C41.7539 0.652344 41.9102 0.480469 41.9883 0.417969C42.207 0.316406 42.3828 0.25 42.5156 0.21875C42.6484 0.1875 42.75 0.171875 42.8203 0.171875C42.9062 0.171875 42.9805 0.191406 43.043 0.230469C43.1133 0.261719 43.1836 0.277344 43.2539 0.277344C43.293 0.277344 43.3359 0.28125 43.3828 0.289062C43.4297 0.289062 43.4844 0.300781 43.5469 0.324219C43.6172 0.371094 43.6758 0.398437 43.7227 0.40625C43.7695 0.414063 43.8555 0.417969 43.9805 0.417969C44.0273 0.417969 44.0781 0.433594 44.1328 0.464844C44.1875 0.488281 44.2148 0.535156 44.2148 0.605469C44.2148 0.667969 44.1953 0.742188 44.1562 0.828125C44.1172 0.914062 44.043 1.02344 43.9336 1.15625C43.6289 1.54687 43.2695 2.00391 42.8555 2.52734C42.4492 3.04297 42.0078 3.60156 41.5312 4.20312C41.0547 4.80469 40.5625 5.43359 40.0547 6.08984C39.5469 6.74609 39.043 7.40625 38.543 8.07031C38.043 8.73438 37.5586 9.39062 37.0898 10.0391C36.6211 10.6797 36.1953 11.293 35.8125 11.8789C35.4297 12.4648 35.0977 13.0039 34.8164 13.4961C34.5352 13.9883 34.332 14.4141 34.207 14.7734C34.8242 14.6484 35.4883 14.5195 36.1992 14.3867C36.918 14.2539 37.6289 14.1328 38.332 14.0234C39.043 13.9062 39.7227 13.8125 40.3711 13.7422C41.0195 13.6719 41.5898 13.6367 42.082 13.6367C42.1914 13.6367 42.293 13.6367 42.3867 13.6367C42.4883 13.6367 42.5859 13.6445 42.6797 13.6602C42.9141 13.6758 43.1016 13.6953 43.2422 13.7188C43.3906 13.7344 43.5117 13.7578 43.6055 13.7891C43.6992 13.8203 43.7734 13.8555 43.8281 13.8945C43.8906 13.9258 43.9492 13.9688 44.0039 14.0234C44.0977 14.0938 44.1914 14.1953 44.2852 14.3281C44.3867 14.4531 44.4375 14.5586 44.4375 14.6445C44.4375 14.6992 44.4102 14.7422 44.3555 14.7734ZM52.3477 7.35547C52.3711 7.37109 52.3867 7.40234 52.3945 7.44922C52.4102 7.49609 52.418 7.55078 52.418 7.61328C52.418 7.67578 52.4102 7.73828 52.3945 7.80078C52.3867 7.86328 52.3633 7.91406 52.3242 7.95312C51.918 8.35938 51.4883 8.82812 51.0352 9.35938C50.5898 9.88281 50.1445 10.4219 49.6992 10.9766C49.2617 11.5312 48.8398 12.082 48.4336 12.6289C48.0352 13.168 47.6758 13.6602 47.3555 14.1055C47.043 14.5508 46.7852 14.9258 46.582 15.2305C46.3789 15.5352 46.2617 15.7266 46.2305 15.8047C46.207 15.8594 46.1719 15.9414 46.125 16.0508C46.0703 16.1523 46.0117 16.2617 45.9492 16.3789C45.8867 16.4961 45.8281 16.6016 45.7734 16.6953C45.7109 16.7891 45.6641 16.8516 45.6328 16.8828C45.5078 17 45.4023 17.082 45.3164 17.1289C45.2305 17.1836 45.1484 17.2109 45.0703 17.2109C45 17.2109 44.9414 17.1875 44.8945 17.1406C44.8398 17.0938 44.7891 17.0703 44.7422 17.0703C44.7266 17.0703 44.7148 17.082 44.707 17.1055C44.6914 17.1367 44.6758 17.168 44.6602 17.1992C44.6445 17.2383 44.6289 17.2695 44.6133 17.293C44.5898 17.3242 44.5586 17.3398 44.5195 17.3398C44.4883 17.3398 44.4648 17.332 44.4492 17.3164C44.3555 17.2539 44.2891 17.1875 44.25 17.1172C44.2109 17.0547 44.1836 17 44.168 16.9531C44.1523 16.8984 44.1445 16.8555 44.1445 16.8242C44.1367 16.7852 44.1289 16.7656 44.1211 16.7656C44.043 16.75 43.9922 16.6953 43.9688 16.6016C43.9375 16.5078 43.9219 16.3945 43.9219 16.2617C43.9219 16.2305 43.9102 16.2031 43.8867 16.1797C43.8633 16.1562 43.8516 16.1094 43.8516 16.0391C43.8516 15.9609 43.8828 15.832 43.9453 15.6523C43.9922 15.5273 44.1016 15.3398 44.2734 15.0898C44.4375 14.8398 44.625 14.5703 44.8359 14.2812C45.0469 13.9922 45.2617 13.707 45.4805 13.4258C45.6914 13.1367 45.8672 12.8945 46.0078 12.6992C46.0781 12.6055 46.207 12.457 46.3945 12.2539C46.582 12.043 46.8047 11.8008 47.0625 11.5273C47.3203 11.2539 47.6016 10.9609 47.9062 10.6484C48.2188 10.3281 48.5312 10.0078 48.8438 9.6875C49.1562 9.36719 49.4609 9.05859 49.7578 8.76172C50.0547 8.46484 50.3242 8.19922 50.5664 7.96484C50.8086 7.73047 51.0078 7.53906 51.1641 7.39062C51.3203 7.23438 51.418 7.14844 51.457 7.13281C51.5039 7.11719 51.5547 7.11328 51.6094 7.12109C51.6719 7.12109 51.7266 7.10156 51.7734 7.0625C51.7969 7.0625 51.8203 7.05859 51.8438 7.05078C51.8672 7.04297 51.8906 7.03906 51.9141 7.03906C51.9531 7.03906 51.9922 7.04688 52.0312 7.0625C52.0781 7.07031 52.1211 7.09375 52.1602 7.13281C52.2305 7.19531 52.2617 7.23828 52.2539 7.26172C52.2461 7.27734 52.2773 7.30859 52.3477 7.35547ZM56.5898 3.14844C56.5273 3.25781 56.4297 3.37109 56.2969 3.48828C56.1719 3.60547 56.0469 3.72656 55.9219 3.85156C55.9062 3.86719 55.8594 3.91016 55.7812 3.98047C55.7031 4.04297 55.6094 4.11719 55.5 4.20312C55.3906 4.28906 55.2773 4.375 55.1602 4.46094C55.0508 4.53906 54.9609 4.59766 54.8906 4.63672C54.8281 4.66016 54.7383 4.68359 54.6211 4.70703C54.5039 4.72266 54.3867 4.73047 54.2695 4.73047C54.1445 4.73047 54.0391 4.72266 53.9531 4.70703C53.8672 4.69141 53.8047 4.66016 53.7656 4.61328C53.6797 4.50391 53.6055 4.38281 53.543 4.25C53.4805 4.11719 53.4492 3.91797 53.4492 3.65234C53.4492 3.62891 53.4414 3.58594 53.4258 3.52344C53.4102 3.45312 53.4023 3.37109 53.4023 3.27734C53.4023 3.19141 53.4102 3.10156 53.4258 3.00781C53.4492 2.90625 53.5039 2.79297 53.5898 2.66797C53.6758 2.55078 53.832 2.41016 54.0586 2.24609C54.2852 2.07422 54.5273 1.91406 54.7852 1.76562C55.0508 1.60938 55.3047 1.48047 55.5469 1.37891C55.7891 1.26953 55.9688 1.21094 56.0859 1.20312C56.1406 1.20312 56.207 1.21094 56.2852 1.22656C56.3633 1.23438 56.4414 1.25 56.5195 1.27344C56.5977 1.29688 56.668 1.32813 56.7305 1.36719C56.793 1.39844 56.8359 1.43359 56.8594 1.47266C56.8984 1.54297 56.9336 1.62891 56.9648 1.73047C57.0039 1.83203 57.0234 1.95312 57.0234 2.09375C57.0234 2.19531 57.0039 2.29687 56.9648 2.39844C56.9336 2.5 56.8945 2.59766 56.8477 2.69141C56.8008 2.78516 56.75 2.87109 56.6953 2.94922C56.6484 3.02734 56.6133 3.09375 56.5898 3.14844ZM57.3516 7.68359C57.3516 7.78516 57.3359 7.88672 57.3047 7.98828C57.2812 8.08203 57.2109 8.18359 57.0938 8.29297C57.0312 8.34766 56.918 8.45703 56.7539 8.62109C56.5898 8.77734 56.4102 8.95703 56.2148 9.16016C56.0195 9.36328 55.8242 9.57422 55.6289 9.79297C55.4336 10.0039 55.2734 10.1914 55.1484 10.3555C55.1016 10.418 55.0352 10.5039 54.9492 10.6133C54.8633 10.7227 54.7539 10.8516 54.6211 11C54.9336 10.7578 55.2734 10.4961 55.6406 10.2148C56.0156 9.93359 56.4023 9.65234 56.8008 9.37109C57.1992 9.08984 57.6016 8.82031 58.0078 8.5625C58.4219 8.29688 58.8203 8.06641 59.2031 7.87109C59.5859 7.66797 59.9492 7.50781 60.293 7.39062C60.6367 7.26562 60.9453 7.20312 61.2188 7.20312C61.4375 7.20312 61.6133 7.26953 61.7461 7.40234C61.8789 7.40234 61.9805 7.45703 62.0508 7.56641C62.1289 7.66797 62.1836 7.78906 62.2148 7.92969C62.2539 8.07031 62.2773 8.21094 62.2852 8.35156C62.293 8.49219 62.2969 8.59766 62.2969 8.66797C62.2969 8.96484 62.207 9.28125 62.0273 9.61719C61.8477 9.95312 61.6133 10.3086 61.3242 10.6836C61.043 11.0508 60.7266 11.4375 60.375 11.8438C60.0234 12.25 59.6719 12.6719 59.3203 13.1094C58.9609 13.5547 58.6289 13.9766 58.3242 14.375C58.0195 14.7656 57.7539 15.1172 57.5273 15.4297C57.3008 15.7422 57.1133 16.0117 56.9648 16.2383C56.8164 16.4648 56.7148 16.6289 56.6602 16.7305C56.5742 16.9023 56.4961 17.0156 56.4258 17.0703C56.3633 17.1328 56.2969 17.1641 56.2266 17.1641C56.2109 17.1641 56.1953 17.1641 56.1797 17.1641C56.1641 17.1641 56.1484 17.1562 56.1328 17.1406C56.0625 17.1406 56.0117 17.1562 55.9805 17.1875C55.9492 17.2188 55.9258 17.2344 55.9102 17.2344C55.8789 17.2344 55.8555 17.1953 55.8398 17.1172C55.8242 17.0703 55.8086 17.043 55.793 17.0352C55.7773 17.0352 55.7578 17.0312 55.7344 17.0234C55.7109 17.0234 55.6836 17.0156 55.6523 17C55.6289 16.9766 55.5977 16.9219 55.5586 16.8359C55.5117 16.75 55.4648 16.6484 55.418 16.5312C55.3789 16.4141 55.3594 16.2812 55.3594 16.1328C55.3594 15.9922 55.3828 15.8359 55.4297 15.6641C55.4844 15.4922 55.582 15.2969 55.7227 15.0781C56.2383 14.2578 56.7656 13.5117 57.3047 12.8398C57.8516 12.1602 58.3594 11.5586 58.8281 11.0352C59.2969 10.5117 59.707 10.0664 60.0586 9.69922C60.4102 9.32422 60.6523 9.03125 60.7852 8.82031C60.6992 8.76562 60.6055 8.73828 60.5039 8.73828C60.3477 8.73828 60.1445 8.77734 59.8945 8.85547C59.6523 8.93359 59.3438 9.06641 58.9688 9.25391C58.5938 9.44141 58.1445 9.69531 57.6211 10.0156C57.0977 10.3281 56.4805 10.7266 55.7695 11.2109C55.5352 11.375 55.2656 11.5898 54.9609 11.8555C54.6562 12.1133 54.3359 12.3984 54 12.7109C53.6719 13.0156 53.3398 13.332 53.0039 13.6602C52.6758 13.9883 52.3633 14.3047 52.0664 14.6094C51.7695 14.9141 51.5039 15.1914 51.2695 15.4414C51.0352 15.6914 50.8555 15.8906 50.7305 16.0391C50.5977 16.2109 50.4648 16.4023 50.332 16.6133C50.1914 16.8164 50.0781 16.9766 49.9922 17.0938C49.9531 17.1641 49.918 17.2227 49.8867 17.2695C49.8477 17.3164 49.8086 17.3398 49.7695 17.3398C49.6289 17.2383 49.543 17.1562 49.5117 17.0938C49.4805 17.0391 49.4648 16.9922 49.4648 16.9531C49.4648 16.8906 49.4648 16.8555 49.4648 16.8477C49.4648 16.8398 49.457 16.8281 49.4414 16.8125C49.3789 16.7578 49.3516 16.7031 49.3594 16.6484C49.3672 16.5938 49.3438 16.5352 49.2891 16.4727C49.2656 16.4492 49.2539 16.4258 49.2539 16.4023C49.2461 16.3789 49.2422 16.3555 49.2422 16.332V16.1094C49.2109 16.0469 49.1953 15.9766 49.1953 15.8984C49.1953 15.8125 49.2188 15.7227 49.2656 15.6289C49.3203 15.5195 49.4336 15.3398 49.6055 15.0898C49.7773 14.832 49.9883 14.5352 50.2383 14.1992C50.4805 13.8633 50.75 13.5039 51.0469 13.1211C51.3359 12.7305 51.625 12.3516 51.9141 11.9844C52.2031 11.6094 52.4766 11.2617 52.7344 10.9414C52.9922 10.6211 53.2109 10.3594 53.3906 10.1562C53.5703 9.96094 53.7695 9.74609 53.9883 9.51172C54.2148 9.27734 54.4453 9.04297 54.6797 8.80859C54.9219 8.57422 55.1562 8.34766 55.3828 8.12891C55.6172 7.90234 55.8281 7.70312 56.0156 7.53125C56.2031 7.35156 56.3594 7.20703 56.4844 7.09766C56.6172 6.98828 56.6992 6.92188 56.7305 6.89844C56.7539 6.88281 56.7656 6.87109 56.7656 6.86328C56.7734 6.85547 56.7852 6.85156 56.8008 6.85156C56.8086 6.85156 56.8281 6.85938 56.8594 6.875C56.8672 6.88281 56.8789 6.89062 56.8945 6.89844C56.9414 6.89844 56.9727 6.90625 56.9883 6.92188C57.0117 6.92969 57.0273 6.94141 57.0352 6.95703C57.0508 6.97266 57.0625 6.99219 57.0703 7.01562C57.0859 7.03906 57.1094 7.0625 57.1406 7.08594C57.1875 7.13281 57.2305 7.15234 57.2695 7.14453C57.3086 7.12891 57.3281 7.14062 57.3281 7.17969V7.20312C57.3281 7.21094 57.3203 7.23047 57.3047 7.26172C57.2891 7.28516 57.2812 7.30859 57.2812 7.33203C57.2812 7.34766 57.2812 7.36328 57.2812 7.37891C57.2812 7.44141 57.293 7.48828 57.3164 7.51953C57.3398 7.54297 57.3516 7.59766 57.3516 7.68359ZM68.1094 8.29297C68.0703 8.32422 67.9414 8.43359 67.7227 8.62109C67.5117 8.80859 67.25 9.04688 66.9375 9.33594C66.6328 9.625 66.293 9.95312 65.918 10.3203C65.5508 10.6797 65.1875 11.0547 64.8281 11.4453C64.4688 11.8359 64.1328 12.2227 63.8203 12.6055C63.5156 12.9883 63.2734 13.3398 63.0938 13.6602C62.875 14.0352 62.7227 14.3672 62.6367 14.6562C62.543 14.9375 62.4961 15.1914 62.4961 15.418C62.4961 15.4648 62.4961 15.5078 62.4961 15.5469C62.4961 15.5781 62.5039 15.6133 62.5195 15.6523C62.5508 15.668 62.5977 15.6758 62.6602 15.6758C62.8398 15.6758 63.0664 15.5977 63.3398 15.4414C63.6211 15.2852 63.9688 15.0391 64.3828 14.7031C64.7969 14.3672 65.2891 13.9414 65.8594 13.4258C66.4297 12.9023 67.0977 12.2773 67.8633 11.5508C68.8164 10.6445 69.5938 9.91797 70.1953 9.37109C70.7969 8.82422 71.2656 8.39844 71.6016 8.09375C71.9453 7.78906 72.1836 7.57812 72.3164 7.46094C72.457 7.33594 72.543 7.25 72.5742 7.20312C72.6133 7.14062 72.6523 7.10938 72.6914 7.10938C72.7148 7.10938 72.7422 7.11719 72.7734 7.13281C72.8125 7.14844 72.8594 7.15625 72.9141 7.15625C72.9609 7.15625 72.9922 7.16406 73.0078 7.17969C73.0312 7.19531 73.0469 7.21875 73.0547 7.25C73.0703 7.27344 73.0859 7.30078 73.1016 7.33203C73.125 7.36328 73.1562 7.39453 73.1953 7.42578C73.2422 7.47266 73.2852 7.57422 73.3242 7.73047C73.3711 7.87891 73.3945 8.02344 73.3945 8.16406C73.3945 8.32031 73.3672 8.42578 73.3125 8.48047C73.2578 8.51953 73.1094 8.67969 72.8672 8.96094C72.625 9.24219 72.3242 9.59766 71.9648 10.0273C71.6133 10.4492 71.2266 10.9219 70.8047 11.4453C70.3828 11.9609 69.9648 12.4688 69.5508 12.9688C69.0898 13.5234 68.7031 14.0273 68.3906 14.4805C68.0859 14.9258 67.8359 15.3125 67.6406 15.6406C67.4453 15.9688 67.2969 16.2344 67.1953 16.4375C67.1016 16.6328 67.0391 16.7656 67.0078 16.8359C66.9766 16.8984 66.9531 16.9414 66.9375 16.9648C66.9219 16.9805 66.9062 16.9961 66.8906 17.0117C66.875 17.0352 66.8516 17.0664 66.8203 17.1055C66.7969 17.1445 66.7617 17.2148 66.7148 17.3164C66.668 17.4102 66.625 17.4766 66.5859 17.5156C66.5469 17.5547 66.5078 17.5781 66.4688 17.5859C66.4375 17.6016 66.4062 17.6094 66.375 17.6094C66.3438 17.6172 66.3125 17.6367 66.2812 17.668C66.2578 17.6914 66.2305 17.7148 66.1992 17.7383C66.168 17.7617 66.1406 17.7734 66.1172 17.7734C66.0391 17.7734 65.9766 17.707 65.9297 17.5742C65.9062 17.5195 65.875 17.4688 65.8359 17.4219C65.8047 17.375 65.7695 17.3281 65.7305 17.2812C65.6992 17.2344 65.6719 17.1758 65.6484 17.1055C65.625 17.043 65.6133 16.9609 65.6133 16.8594C65.6133 16.8359 65.6172 16.8125 65.625 16.7891C65.6328 16.7578 65.6367 16.7227 65.6367 16.6836C65.6445 16.543 65.6836 16.3906 65.7539 16.2266C65.8242 16.0547 65.9062 15.8867 66 15.7227C66.1016 15.5508 66.2031 15.3867 66.3047 15.2305C66.4141 15.0664 66.5117 14.9219 66.5977 14.7969L67.3125 13.6836C67.1016 13.8633 66.8828 14.0625 66.6562 14.2812C66.4375 14.5 66.2227 14.7188 66.0117 14.9375C65.8008 15.1562 65.6016 15.3633 65.4141 15.5586C65.2266 15.7539 65.0625 15.9219 64.9219 16.0625C64.75 16.2266 64.5586 16.3789 64.3477 16.5195C64.1445 16.6523 63.9375 16.7734 63.7266 16.8828C63.5156 16.9844 63.3047 17.0625 63.0938 17.1172C62.8906 17.1797 62.707 17.2109 62.543 17.2109C62.5039 17.2109 62.4688 17.2109 62.4375 17.2109C62.4062 17.2109 62.375 17.2031 62.3438 17.1875C62.2344 17.1641 62.125 17.1172 62.0156 17.0469C61.9062 16.9766 61.8008 16.8828 61.6992 16.7656C61.543 16.6406 61.4102 16.4844 61.3008 16.2969C61.1836 16.1016 61.125 15.8086 61.125 15.418C61.125 15.3477 61.125 15.2695 61.125 15.1836C61.125 15.0977 61.1328 15.0078 61.1484 14.9141C61.2031 14.4609 61.3711 13.9688 61.6523 13.4375C61.9258 12.8984 62.2617 12.3594 62.6602 11.8203C63.0586 11.2734 63.4883 10.7461 63.9492 10.2383C64.4102 9.72266 64.8477 9.26562 65.2617 8.86719C65.6836 8.46094 66.0508 8.12891 66.3633 7.87109C66.6836 7.60547 66.8984 7.44922 67.0078 7.40234C67.0859 7.37109 67.1523 7.35156 67.207 7.34375C67.2617 7.33594 67.3125 7.33203 67.3594 7.33203C67.4062 7.32422 67.4531 7.32031 67.5 7.32031C67.5547 7.3125 67.6133 7.30078 67.6758 7.28516C67.7148 7.26953 67.75 7.26172 67.7812 7.26172C67.8203 7.26172 67.8594 7.26172 67.8984 7.26172C68.0078 7.26172 68.1016 7.28516 68.1797 7.33203C68.2656 7.37109 68.3477 7.41016 68.4258 7.44922C68.5977 7.55078 68.6836 7.64453 68.6836 7.73047C68.6836 7.80859 68.6523 7.86719 68.5898 7.90625L68.1094 8.29297ZM77.5312 16.7656C77.5156 16.7812 77.5 16.793 77.4844 16.8008C77.4688 16.8008 77.4531 16.8125 77.4375 16.8359C77.4219 16.8516 77.4023 16.8789 77.3789 16.918C77.3555 16.957 77.3281 17.0156 77.2969 17.0938C77.2422 17.1641 77.2188 17.2188 77.2266 17.2578C77.2344 17.2969 77.1992 17.3164 77.1211 17.3164C77.0508 17.3164 76.9922 17.2852 76.9453 17.2227C76.9062 17.168 76.8555 17.1406 76.793 17.1406C76.7383 17.1406 76.707 17.1445 76.6992 17.1523C76.6914 17.168 76.6875 17.1875 76.6875 17.2109V17.3164C76.6875 17.3633 76.6719 17.3867 76.6406 17.3867C76.6016 17.3867 76.543 17.3516 76.4648 17.2812C76.3867 17.2109 76.2852 17.1641 76.1602 17.1406C76.0508 17.1094 75.9844 17.0703 75.9609 17.0234C75.9375 16.9844 75.9102 16.8867 75.8789 16.7305C75.8555 16.6758 75.8203 16.5117 75.7734 16.2383C75.7266 15.9648 75.6758 15.6484 75.6211 15.2891C75.5664 14.9297 75.5078 14.5547 75.4453 14.1641C75.3906 13.7734 75.3438 13.4297 75.3047 13.1328C74.7031 13.6719 74.1445 14.1875 73.6289 14.6797C73.1133 15.1719 72.6602 15.6133 72.2695 16.0039C71.8711 16.3867 71.5469 16.6992 71.2969 16.9414C71.0391 17.1836 70.8711 17.3242 70.793 17.3633C70.7305 17.3867 70.6836 17.4062 70.6523 17.4219C70.6211 17.4453 70.5625 17.457 70.4766 17.457C70.4297 17.457 70.3906 17.4219 70.3594 17.3516C70.3281 17.2891 70.3047 17.2188 70.2891 17.1406C70.2891 17.1016 70.2695 17.0664 70.2305 17.0352C70.1836 17.0117 70.1289 16.9922 70.0664 16.9766C70.043 16.9766 70.0039 16.9883 69.9492 17.0117C69.8867 17.0352 69.832 17.0469 69.7852 17.0469C69.707 17.0469 69.6484 17.0391 69.6094 17.0234C69.5625 17.0078 69.5391 16.9688 69.5391 16.9062C69.5391 16.8828 69.5469 16.8555 69.5625 16.8242C69.5781 16.7852 69.5938 16.7461 69.6094 16.707C69.6484 16.6367 69.7578 16.4805 69.9375 16.2383C70.1094 15.9961 70.4258 15.6641 70.8867 15.2422C71.043 15.1016 71.2852 14.8828 71.6133 14.5859C71.9336 14.2891 72.293 13.9648 72.6914 13.6133C73.082 13.2539 73.4844 12.8906 73.8984 12.5234C74.3203 12.1562 74.6992 11.8242 75.0352 11.5273C74.9805 11.1289 74.9258 10.7266 74.8711 10.3203C74.8242 9.90625 74.7734 9.51562 74.7188 9.14844C74.6719 8.78125 74.625 8.44922 74.5781 8.15234C74.5312 7.85547 74.4922 7.62109 74.4609 7.44922C74.4453 7.41016 74.4375 7.37891 74.4375 7.35547C74.4375 7.33203 74.4375 7.30859 74.4375 7.28516C74.4375 7.20703 74.4648 7.15625 74.5195 7.13281C74.582 7.10938 74.6523 7.08594 74.7305 7.0625C74.7773 7.04688 74.7969 7.01172 74.7891 6.95703C74.7812 6.90234 74.8008 6.875 74.8477 6.875H74.8711C74.8867 6.875 74.9102 6.88281 74.9414 6.89844C74.957 6.90625 74.9727 6.91797 74.9883 6.93359C74.9961 6.94141 75.0039 6.94531 75.0117 6.94531C75.0508 6.94531 75.0664 6.92578 75.0586 6.88672C75.0508 6.84766 75.0586 6.80469 75.082 6.75781C75.1289 6.65625 75.1875 6.60547 75.2578 6.60547C75.3359 6.60547 75.3984 6.62891 75.4453 6.67578L75.5391 6.72266C75.5781 6.72266 75.6016 6.71484 75.6094 6.69922C75.6172 6.67578 75.6328 6.65234 75.6562 6.62891C75.6719 6.60547 75.7031 6.58984 75.75 6.58203C75.7969 6.56641 75.8398 6.55859 75.8789 6.55859C75.9258 6.55859 75.9688 6.56641 76.0078 6.58203C76.0547 6.58984 76.0898 6.61328 76.1133 6.65234C76.1367 6.72266 76.168 6.75781 76.207 6.75781C76.2227 6.75781 76.2461 6.76953 76.2773 6.79297C76.3164 6.80859 76.3359 6.82812 76.3359 6.85156C76.3438 6.89844 76.3633 7.01172 76.3945 7.19141C76.4258 7.37109 76.4648 7.60156 76.5117 7.88281C76.5586 8.16406 76.6094 8.48828 76.6641 8.85547C76.7188 9.22266 76.7773 9.61719 76.8398 10.0391C77.1055 9.8125 77.4141 9.55078 77.7656 9.25391C78.1172 8.95703 78.4766 8.65234 78.8438 8.33984C79.2188 8.01953 79.5859 7.70703 79.9453 7.40234C80.3125 7.09766 80.6445 6.82422 80.9414 6.58203C81.2461 6.33984 81.5 6.14453 81.7031 5.99609C81.9062 5.83984 82.0352 5.75391 82.0898 5.73828H82.1602C82.2617 5.73828 82.3242 5.76953 82.3477 5.83203C82.3711 5.88672 82.4062 5.9375 82.4531 5.98438C82.4766 6.00781 82.4883 6.02734 82.4883 6.04297C82.4961 6.05078 82.5078 6.05469 82.5234 6.05469C82.5391 6.05469 82.5547 6.04688 82.5703 6.03125C82.5859 6.00781 82.625 5.98438 82.6875 5.96094C82.7656 5.91406 82.8242 5.89062 82.8633 5.89062C82.918 5.89062 82.957 5.92969 82.9805 6.00781C82.9961 6.04688 83.0117 6.07031 83.0273 6.07812C83.0508 6.08594 83.0664 6.09375 83.0742 6.10156C83.0898 6.10156 83.1016 6.10547 83.1094 6.11328C83.1172 6.12109 83.1211 6.14062 83.1211 6.17188C83.1211 6.25 83.0977 6.31641 83.0508 6.37109C83.0039 6.42578 82.957 6.47266 82.9102 6.51172C82.5195 6.81641 82.0938 7.16797 81.6328 7.56641C81.1797 7.95703 80.6992 8.375 80.1914 8.82031C79.6914 9.26562 79.1758 9.72656 78.6445 10.2031C78.1133 10.6797 77.582 11.1523 77.0508 11.6211C77.1133 12.0664 77.1758 12.5234 77.2383 12.9922C77.3086 13.4609 77.3672 13.9102 77.4141 14.3398C77.4688 14.7695 77.5117 15.1641 77.543 15.5234C77.582 15.875 77.6016 16.1602 77.6016 16.3789C77.6016 16.6055 77.5781 16.7344 77.5312 16.7656ZM20.2148 32.0781C20.1914 32.25 20.1016 32.5117 19.9453 32.8633C19.7969 33.2148 19.582 33.6289 19.3008 34.1055C19.0273 34.5742 18.6836 35.0898 18.2695 35.6523C17.8555 36.2148 17.375 36.7891 16.8281 37.375C16.2812 37.9531 15.6602 38.5312 14.9648 39.1094C14.2773 39.6875 13.5156 40.2305 12.6797 40.7383C11.8438 41.2461 10.9297 41.7031 9.9375 42.1094C8.95312 42.5078 7.89062 42.8281 6.75 43.0703C6.27344 43.1797 5.85547 43.2539 5.49609 43.293C5.14453 43.3398 4.84375 43.3633 4.59375 43.3633C4.48438 43.3633 4.34766 43.3555 4.18359 43.3398C4.02734 43.332 3.87109 43.3086 3.71484 43.2695C3.55859 43.2383 3.41016 43.1875 3.26953 43.1172C3.13672 43.0469 3.04297 42.9531 2.98828 42.8359C2.89453 42.7031 2.80859 42.5352 2.73047 42.332C2.66016 42.1289 2.60156 41.9258 2.55469 41.7227C2.36719 41.8711 2.22656 41.9922 2.13281 42.0859C2.03125 42.1719 1.94922 42.2422 1.88672 42.2969C1.82422 42.3438 1.76953 42.3789 1.72266 42.4023C1.67578 42.418 1.61719 42.4258 1.54688 42.4258C1.50781 42.4258 1.46094 42.4258 1.40625 42.4258C1.34375 42.4258 1.26953 42.418 1.18359 42.4023C1.06641 42.3867 0.976562 42.3125 0.914062 42.1797C0.84375 42.0469 0.808594 41.8945 0.808594 41.7227C0.808594 41.543 0.839844 41.375 0.902344 41.2188C0.957031 41.0781 1.10547 40.8164 1.34766 40.4336C1.58984 40.043 1.89844 39.582 2.27344 39.0508C2.64062 38.5117 3.05469 37.9258 3.51562 37.293C3.98438 36.6602 4.47266 36.0273 4.98047 35.3945C5.26172 35.0352 5.57422 34.6406 5.91797 34.2109C6.26172 33.7812 6.61719 33.3438 6.98438 32.8984C7.35156 32.4453 7.71875 31.9961 8.08594 31.5508C8.46094 31.0977 8.81641 30.6758 9.15234 30.2852C9.48828 29.8867 9.79688 29.5273 10.0781 29.207C10.3672 28.8789 10.6055 28.6133 10.793 28.4102C10.332 28.5195 9.83984 28.6641 9.31641 28.8438C8.80078 29.0156 8.23438 29.2227 7.61719 29.4648C7.60156 29.4648 7.59375 29.4688 7.59375 29.4766C7.59375 29.4844 7.58594 29.4883 7.57031 29.4883C7.5 29.4883 7.4375 29.4297 7.38281 29.3125C7.33594 29.1875 7.3125 29.0703 7.3125 28.9609C7.3125 28.8984 7.31641 28.8438 7.32422 28.7969C7.33984 28.75 7.36719 28.7148 7.40625 28.6914C7.5 28.6289 7.58203 28.5625 7.65234 28.4922C7.73047 28.4219 7.8125 28.3555 7.89844 28.293C7.98438 28.2227 8.07812 28.1562 8.17969 28.0938C8.28906 28.0312 8.41406 27.9688 8.55469 27.9062C8.6875 27.8438 8.91797 27.7383 9.24609 27.5898C9.57422 27.4336 9.98438 27.2773 10.4766 27.1211C10.9688 26.957 11.5273 26.8164 12.1523 26.6992C12.7852 26.5742 13.4648 26.5117 14.1914 26.5117C14.293 26.5117 14.3945 26.5156 14.4961 26.5234C14.5977 26.5312 14.6992 26.5352 14.8008 26.5352C16.3555 26.6289 17.5664 26.9062 18.4336 27.3672C19.3008 27.8203 19.7852 28.3906 19.8867 29.0781C20.0195 29.4062 20.1172 29.7734 20.1797 30.1797C20.2422 30.5859 20.2734 30.9883 20.2734 31.3867C20.2734 31.4805 20.2695 31.5859 20.2617 31.7031C20.2617 31.8203 20.2461 31.9453 20.2148 32.0781ZM5.80078 39.8828C5.74609 39.9688 5.64844 40.0586 5.50781 40.1523C5.375 40.2461 5.23047 40.3477 5.07422 40.457C4.91797 40.5664 4.76562 40.6797 4.61719 40.7969C4.47656 40.9141 4.36719 41.0312 4.28906 41.1484C4.375 41.1641 4.46484 41.1758 4.55859 41.1836C4.65234 41.1914 4.76172 41.1953 4.88672 41.1953C5.15234 41.1953 5.45312 41.1719 5.78906 41.125C6.13281 41.0703 6.52344 40.9766 6.96094 40.8438C7.39844 40.7109 7.88672 40.5312 8.42578 40.3047C8.97266 40.0703 9.57422 39.7773 10.2305 39.4258C10.9805 39.0273 11.7227 38.5742 12.457 38.0664C13.1914 37.5508 13.8867 37.0039 14.543 36.4258C15.207 35.8398 15.8203 35.2383 16.3828 34.6211C16.9453 33.9961 17.4336 33.3789 17.8477 32.7695C18.2695 32.1602 18.6055 31.5703 18.8555 31C19.1055 30.4219 19.2422 29.8867 19.2656 29.3945C19.0859 29.0195 18.6758 28.7266 18.0352 28.5156C17.4023 28.2969 16.4844 28.1406 15.2812 28.0469C15.0781 28.0312 14.8672 28.0195 14.6484 28.0117C14.4375 28.0039 14.2227 28 14.0039 28C13.6289 28 13.2422 28.0156 12.8438 28.0469C12.4453 28.0781 12.0156 28.1406 11.5547 28.2344C11.6406 28.3125 11.7305 28.3945 11.8242 28.4805C11.918 28.5664 12.0195 28.6445 12.1289 28.7148C12.207 28.7695 12.2656 28.8047 12.3047 28.8203C12.3516 28.8281 12.375 28.8516 12.375 28.8906C12.375 28.9297 12.3438 28.9922 12.2812 29.0781C12.2422 29.1328 12.1055 29.3125 11.8711 29.6172C11.6367 29.9219 11.3438 30.3008 10.9922 30.7539C10.6484 31.1992 10.2695 31.6875 9.85547 32.2188C9.44141 32.75 9.03516 33.2695 8.63672 33.7773C8.23828 34.2773 7.86719 34.7383 7.52344 35.1602C7.1875 35.582 6.92188 35.9062 6.72656 36.1328C6.58594 36.3047 6.42188 36.5195 6.23438 36.7773C6.04688 37.0273 5.84766 37.3008 5.63672 37.5977C5.42578 37.8945 5.20703 38.207 4.98047 38.5352C4.76172 38.8633 4.54688 39.1836 4.33594 39.4961C4.625 39.3633 4.87891 39.2578 5.09766 39.1797C5.32422 39.1016 5.46094 39.0625 5.50781 39.0625C5.52344 39.0625 5.5625 39.1055 5.625 39.1914C5.6875 39.2773 5.71875 39.3555 5.71875 39.4258C5.71875 39.4414 5.71484 39.4609 5.70703 39.4844C5.69922 39.5 5.69531 39.5195 5.69531 39.543C5.78125 39.543 5.83594 39.5547 5.85938 39.5781C5.88281 39.5938 5.89453 39.6133 5.89453 39.6367C5.89453 39.6836 5.87891 39.7383 5.84766 39.8008C5.83203 39.832 5.81641 39.8594 5.80078 39.8828ZM27.1289 38.3711C27.0977 38.5039 27.0547 38.6602 27 38.8398C26.9453 39.0195 26.8633 39.2148 26.7539 39.4258C26.6445 39.6289 26.5039 39.8398 26.332 40.0586C26.1602 40.2695 25.9453 40.4805 25.6875 40.6914C25.5234 40.832 25.3867 40.957 25.2773 41.0664C25.168 41.168 25.0742 41.2617 24.9961 41.3477C24.9258 41.4336 24.8594 41.5156 24.7969 41.5938C24.7344 41.6641 24.6641 41.7422 24.5859 41.8281C24.5156 41.9062 24.4258 41.9922 24.3164 42.0859C24.2148 42.1797 24.082 42.2852 23.918 42.4023C23.7305 42.543 23.5195 42.6758 23.2852 42.8008C23.0586 42.9258 22.8203 43.0352 22.5703 43.1289C22.3203 43.2227 22.0664 43.2969 21.8086 43.3516C21.5586 43.4062 21.3164 43.4336 21.082 43.4336C20.7695 43.4336 20.4883 43.3672 20.2383 43.2344C20.0508 43.1953 19.8477 43.0977 19.6289 42.9414C19.4102 42.7852 19.207 42.582 19.0195 42.332C18.832 42.082 18.6797 41.7852 18.5625 41.4414C18.4375 41.0977 18.375 40.7148 18.375 40.293C18.375 39.7461 18.5117 39.1406 18.7852 38.4766C19.0508 37.8125 19.5195 37.1055 20.1914 36.3555C20.7305 35.7695 21.2773 35.2617 21.832 34.832C22.3867 34.4023 22.9297 34.0508 23.4609 33.7773C24 33.5039 24.5117 33.3008 24.9961 33.168C25.4805 33.0352 25.918 32.9688 26.3086 32.9688C26.3945 32.9688 26.4727 32.9727 26.543 32.9805C26.6211 32.9883 26.6953 33 26.7656 33.0156C26.7969 33 26.8477 32.9922 26.918 32.9922C27.1055 32.9922 27.2812 33.0234 27.4453 33.0859C27.6094 33.1406 27.75 33.2227 27.8672 33.332C27.9922 33.4414 28.0898 33.5703 28.1602 33.7188C28.2383 33.8672 28.2773 34.0312 28.2773 34.2109C28.2773 34.6016 28.1758 34.9727 27.9727 35.3242C27.7695 35.6758 27.5039 36.0039 27.1758 36.3086C26.8477 36.6055 26.4766 36.875 26.0625 37.1172C25.6484 37.3594 25.2266 37.5664 24.7969 37.7383C24.3672 37.9102 23.9492 38.043 23.543 38.1367C23.1445 38.2305 22.7969 38.2773 22.5 38.2773C22.2734 38.2773 22.0273 38.2461 21.7617 38.1836C21.4961 38.1211 21.2852 38.0469 21.1289 37.9609C20.7148 38.5625 20.4023 39.0938 20.1914 39.5547C19.9883 40.0078 19.8867 40.4219 19.8867 40.7969C19.8867 41.0234 19.918 41.2148 19.9805 41.3711C20.168 41.4648 20.4297 41.5117 20.7656 41.5117C21.0859 41.5117 21.457 41.4531 21.8789 41.3359C22.3008 41.2109 22.7617 41.0195 23.2617 40.7617C23.7695 40.4961 24.3086 40.1562 24.8789 39.7422C25.4492 39.3203 26.0391 38.8125 26.6484 38.2188C26.7578 38.1094 26.8477 38.0273 26.918 37.9727C26.9961 37.918 27.0586 37.8906 27.1055 37.8906C27.1523 37.8906 27.1758 37.9375 27.1758 38.0312L27.1289 38.3711ZM25.4766 35.8281C25.8047 35.6328 26.0742 35.4453 26.2852 35.2656C26.5039 35.0859 26.6758 34.9219 26.8008 34.7734C26.9336 34.6172 27.0273 34.4766 27.082 34.3516C27.1367 34.2188 27.168 34.1016 27.1758 34C27.1055 33.9062 26.9844 33.8594 26.8125 33.8594C26.6406 33.8594 26.4258 33.9023 26.168 33.9883C25.918 34.0664 25.6445 34.1797 25.3477 34.3281C25.0508 34.4688 24.7383 34.6367 24.4102 34.832C24.0898 35.0273 23.7734 35.2422 23.4609 35.4766C23.1562 35.7031 22.8633 35.9453 22.582 36.2031C22.3008 36.4609 22.0586 36.7188 21.8555 36.9766C21.7617 37.0781 21.6797 37.1836 21.6094 37.293C21.6719 37.3086 21.7305 37.3164 21.7852 37.3164C21.8477 37.3164 21.9102 37.3164 21.9727 37.3164C22.3711 37.3164 22.8555 37.1914 23.4258 36.9414C23.9961 36.6836 24.6797 36.3125 25.4766 35.8281ZM29.1562 40.7734C29.125 40.7891 29.0703 40.8125 28.9922 40.8438C28.9062 40.8672 28.8203 40.9062 28.7344 40.9609C28.6484 41.0156 28.5703 41.082 28.5 41.1602C28.4219 41.2383 28.375 41.332 28.3594 41.4414C28.3906 41.4805 28.4336 41.5039 28.4883 41.5117C28.5352 41.5117 28.582 41.5117 28.6289 41.5117C28.707 41.5117 28.7578 41.5078 28.7812 41.5C28.8047 41.5 28.8242 41.4961 28.8398 41.4883C29.1445 41.4258 29.4727 41.3477 29.8242 41.2539C30.1758 41.1523 30.5312 41.0391 30.8906 40.9141C31.2578 40.7812 31.6172 40.6406 31.9688 40.4922C32.3203 40.3438 32.6445 40.1836 32.9414 40.0117C33.2461 39.8398 33.5117 39.6641 33.7383 39.4844C33.9727 39.3047 34.1484 39.1172 34.2656 38.9219C34.1875 38.8281 34.0312 38.75 33.7969 38.6875C33.5703 38.625 33.2969 38.5664 32.9766 38.5117C32.6641 38.457 32.3242 38.4062 31.957 38.3594C31.5977 38.3047 31.25 38.2422 30.9141 38.1719C30.7266 38.1328 30.5703 38.082 30.4453 38.0195C30.3281 37.9492 30.2305 37.875 30.1523 37.7969C30.0742 37.7109 30.0078 37.6211 29.9531 37.5273C29.8984 37.4336 29.8477 37.3359 29.8008 37.2344C29.7305 37.0781 29.6758 36.9336 29.6367 36.8008C29.6055 36.668 29.5898 36.5195 29.5898 36.3555C29.5898 36.207 29.6016 36.0938 29.625 36.0156C29.6484 35.9297 29.6914 35.8516 29.7539 35.7812C29.9883 35.4844 30.3008 35.2148 30.6914 34.9727C31.0898 34.7305 31.5234 34.5156 31.9922 34.3281C32.4609 34.1406 32.9492 33.9805 33.457 33.8477C33.9648 33.7148 34.4453 33.6055 34.8984 33.5195C35.3516 33.4258 35.7539 33.3594 36.1055 33.3203C36.4648 33.2812 36.7344 33.2617 36.9141 33.2617C37.0547 33.2617 37.168 33.2773 37.2539 33.3086C37.3398 33.3398 37.4258 33.3555 37.5117 33.3555C37.6445 33.3555 37.7539 33.4062 37.8398 33.5078C37.9258 33.6016 37.9688 33.7031 37.9688 33.8125C37.9688 33.9766 37.8711 34.1641 37.6758 34.375C37.4883 34.5781 37.1836 34.7891 36.7617 35.0078C36.3555 35.2109 36.043 35.3516 35.8242 35.4297C35.6055 35.5 35.4531 35.5352 35.3672 35.5352C35.3047 35.5352 35.2734 35.5195 35.2734 35.4883C35.2578 35.4648 35.25 35.4375 35.25 35.4062C35.25 35.375 35.25 35.3398 35.25 35.3008C35.25 35.1055 35.2891 34.9102 35.3672 34.7148C35.2422 34.7148 35.0977 34.7266 34.9336 34.75C34.7695 34.7734 34.5742 34.8164 34.3477 34.8789C34.1289 34.9414 33.8711 35.0273 33.5742 35.1367C33.2852 35.2383 32.9492 35.3711 32.5664 35.5352C32.0039 35.7617 31.5781 35.9531 31.2891 36.1094C31.0078 36.2656 30.8164 36.4102 30.7148 36.543C30.9102 36.6523 31.168 36.7383 31.4883 36.8008C31.8086 36.8633 32.1484 36.9219 32.5078 36.9766C32.875 37.0312 33.2383 37.0977 33.5977 37.1758C33.9648 37.2461 34.2852 37.3477 34.5586 37.4805C34.9492 37.6836 35.2188 37.9219 35.3672 38.1953C35.4453 38.3203 35.5 38.4648 35.5312 38.6289C35.5703 38.793 35.5898 38.9531 35.5898 39.1094C35.5898 39.3281 35.5664 39.4961 35.5195 39.6133C35.3242 40.0664 35.0508 40.4688 34.6992 40.8203C34.3477 41.1719 33.9531 41.4766 33.5156 41.7344C33.0859 41.9922 32.6289 42.2109 32.1445 42.3906C31.668 42.5703 31.1992 42.7188 30.7383 42.8359C30.2773 42.9531 29.8477 43.043 29.4492 43.1055C29.0508 43.168 28.7148 43.2109 28.4414 43.2344C28.3633 43.25 28.2891 43.2578 28.2188 43.2578C28.1406 43.2656 28.0703 43.2695 28.0078 43.2695C27.8047 43.2695 27.6133 43.2344 27.4336 43.1641C27.2539 43.1016 27.0977 43.0117 26.9648 42.8945C26.832 42.7695 26.7266 42.6211 26.6484 42.4492C26.5625 42.2695 26.5195 42.0703 26.5195 41.8516C26.5195 41.5703 26.582 41.3281 26.707 41.125C26.8242 40.9219 26.9727 40.7539 27.1523 40.6211C27.332 40.4805 27.5273 40.3672 27.7383 40.2812C27.9492 40.1953 28.1484 40.125 28.3359 40.0703C28.4844 40.0312 28.6055 40.0039 28.6992 39.9883C28.7852 39.9648 28.8672 39.9531 28.9453 39.9531C29.0078 39.9531 29.0547 39.9648 29.0859 39.9883C29.1094 40.0039 29.1328 40.0312 29.1562 40.0703C29.1719 40.1328 29.1875 40.207 29.2031 40.293C29.2188 40.3789 29.2266 40.4648 29.2266 40.5508C29.2266 40.5977 29.2188 40.6445 29.2031 40.6914C29.1953 40.7305 29.1797 40.7578 29.1562 40.7734ZM48.4805 39.3555C48.4961 39.3711 48.5039 39.3945 48.5039 39.4258C48.5039 39.5195 48.4023 39.6914 48.1992 39.9414C48.0039 40.1836 47.7461 40.4609 47.4258 40.7734C47.1055 41.0781 46.7422 41.3984 46.3359 41.7344C45.9375 42.0625 45.5352 42.3672 45.1289 42.6484C44.7227 42.9219 44.3359 43.1484 43.9688 43.3281C43.6016 43.5078 43.2891 43.5977 43.0312 43.5977C42.6562 43.5977 42.3086 43.457 41.9883 43.1758C41.668 42.9023 41.3906 42.5273 41.1562 42.0508C40.9219 41.5664 40.7344 41 40.5938 40.3516C40.4609 39.7031 40.3945 39.0117 40.3945 38.2773C40.3945 38.1992 40.3906 38.1211 40.3828 38.043C40.375 37.9648 40.3789 37.8906 40.3945 37.8203C40.0508 38.2891 39.6914 38.7812 39.3164 39.2969C38.9414 39.8047 38.5781 40.3008 38.2266 40.7852C37.875 41.2617 37.5547 41.707 37.2656 42.1211C36.9766 42.5273 36.7461 42.8594 36.5742 43.1172C36.5039 43.2266 36.4375 43.293 36.375 43.3164C36.3047 43.3477 36.2422 43.3633 36.1875 43.3633C36.0078 43.3633 35.8398 43.2969 35.6836 43.1641C35.5273 43.0312 35.3945 42.8984 35.2852 42.7656C35.2461 42.7344 35.2188 42.6914 35.2031 42.6367C35.1875 42.5742 35.1797 42.5117 35.1797 42.4492C35.1797 42.3711 35.1992 42.2734 35.2383 42.1562C35.2695 42.0859 35.3828 41.9062 35.5781 41.6172C35.7656 41.3281 36.0156 40.9648 36.3281 40.5273C36.6406 40.0898 37.0039 39.5938 37.418 39.0391C37.8242 38.4766 38.2539 37.8867 38.707 37.2695C39.1602 36.6523 39.625 36.0234 40.1016 35.3828C40.5781 34.7344 41.043 34.1055 41.4961 33.4961C41.707 33.2227 41.9648 32.8984 42.2695 32.5234C42.582 32.1406 42.9102 31.7383 43.2539 31.3164C43.6055 30.8945 43.9609 30.4688 44.3203 30.0391C44.6875 29.6016 45.0312 29.1953 45.3516 28.8203C45.6719 28.4375 45.9531 28.0977 46.1953 27.8008C46.4375 27.4961 46.6172 27.2656 46.7344 27.1094C46.8281 26.9766 46.9102 26.8867 46.9805 26.8398C47.0508 26.7852 47.1172 26.7578 47.1797 26.7578C47.25 26.7578 47.293 26.7656 47.3086 26.7812C47.3477 26.8047 47.3672 26.8242 47.3672 26.8398C47.375 26.8555 47.3789 26.875 47.3789 26.8984C47.3789 26.9141 47.3945 26.9219 47.4258 26.9219C47.4727 26.9375 47.5039 26.9492 47.5195 26.957C47.543 26.9648 47.5664 26.9688 47.5898 26.9688C47.6133 26.9609 47.6406 26.9531 47.6719 26.9453C47.7344 26.9297 47.7891 26.9219 47.8359 26.9219C47.8906 26.9219 47.9453 26.9766 48 27.0859C48.0469 27.1484 48.0898 27.1953 48.1289 27.2266C48.1758 27.2578 48.2148 27.3164 48.2461 27.4023C48.2617 27.4648 48.2773 27.5078 48.293 27.5312C48.3086 27.5469 48.3164 27.5742 48.3164 27.6133C48.3164 27.6445 48.293 27.7109 48.2461 27.8125C48.1836 27.9297 48.0352 28.1328 47.8008 28.4219C47.5742 28.7031 47.2891 29.0508 46.9453 29.4648C46.6016 29.8711 46.2109 30.3359 45.7734 30.8594C45.3359 31.375 44.875 31.9297 44.3906 32.5234C43.9062 33.1172 43.4102 33.7383 42.9023 34.3867C42.3945 35.0273 41.9023 35.6758 41.4258 36.332C41.6914 36.2539 42.0039 36.1289 42.3633 35.957C42.7227 35.7773 43.0977 35.5781 43.4883 35.3594C43.8789 35.1328 44.2656 34.8945 44.6484 34.6445C45.0391 34.3945 45.3906 34.1641 45.7031 33.9531C46.0234 33.7344 46.2891 33.5469 46.5 33.3906C46.7109 33.2266 46.8359 33.1172 46.875 33.0625C46.9062 33.0312 46.9648 32.9883 47.0508 32.9336C47.1367 32.8789 47.2305 32.8242 47.332 32.7695C47.4336 32.7148 47.5312 32.6719 47.625 32.6406C47.7266 32.6016 47.8047 32.582 47.8594 32.582C48.0625 32.582 48.1641 32.6641 48.1641 32.8281C48.2266 32.8516 48.2656 32.875 48.2812 32.8984C48.3047 32.9141 48.3164 32.9297 48.3164 32.9453C48.3164 32.9688 48.3086 33 48.293 33.0391C48.2773 33.0781 48.2695 33.1328 48.2695 33.2031C48.2695 33.2812 48.2578 33.3359 48.2344 33.3672C48.2188 33.3906 48.1797 33.4258 48.1172 33.4727C48.0234 33.5664 47.9531 33.6484 47.9062 33.7188C47.8672 33.7891 47.8281 33.8672 47.7891 33.9531C47.7734 33.9922 47.6562 34.1211 47.4375 34.3398C47.2188 34.5508 46.9258 34.8047 46.5586 35.1016C46.1992 35.3906 45.7852 35.6992 45.3164 36.0273C44.8555 36.3555 44.375 36.6562 43.875 36.9297C43.6875 37.0312 43.4766 37.1367 43.2422 37.2461C43.0391 37.3398 42.7969 37.4414 42.5156 37.5508C42.2344 37.6602 41.9258 37.7656 41.5898 37.8672C41.6367 38.2031 41.7031 38.5625 41.7891 38.9453C41.8828 39.3203 42.0078 39.6719 42.1641 40C42.3203 40.3203 42.5156 40.5898 42.75 40.8086C42.9922 41.0195 43.2852 41.125 43.6289 41.125C43.9805 41.125 44.3438 41.0586 44.7188 40.9258C45.0938 40.7852 45.457 40.625 45.8086 40.4453C46.1602 40.2578 46.4844 40.0742 46.7812 39.8945C47.0859 39.7148 47.332 39.582 47.5195 39.4961C47.7148 39.4102 47.8633 39.3516 47.9648 39.3203C48.0664 39.2812 48.1484 39.2617 48.2109 39.2617C48.2734 39.2617 48.3203 39.2734 48.3516 39.2969C48.3906 39.3203 48.4336 39.3398 48.4805 39.3555ZM59.4258 27.6602C59.4414 27.6836 59.4531 27.7109 59.4609 27.7422C59.4766 27.7656 59.4844 27.7891 59.4844 27.8125C59.4844 27.9219 59.457 28.0156 59.4023 28.0938C59.3555 28.1719 59.332 28.2539 59.332 28.3398C59.3477 28.3398 59.375 28.3242 59.4141 28.293C59.4609 28.2539 59.4922 28.2344 59.5078 28.2344H59.5195V28.2461C59.5195 28.2539 59.5234 28.2617 59.5312 28.2695C59.5312 28.2852 59.5156 28.3203 59.4844 28.375C59.4531 28.4219 59.3945 28.5039 59.3086 28.6211L56.6016 32.3008C57.1562 32.2383 57.6719 32.1914 58.1484 32.1602C58.625 32.1211 59.0117 32.1016 59.3086 32.1016C59.418 32.1016 59.5195 32.1367 59.6133 32.207C59.7148 32.2695 59.7656 32.3555 59.7656 32.4648C59.7656 32.543 59.7344 32.6133 59.6719 32.6758C59.6094 32.7383 59.5547 32.8164 59.5078 32.9102C59.4609 32.9961 59.3867 33.1133 59.2852 33.2617C59.2305 33.3242 59.1406 33.3828 59.0156 33.4375C58.8984 33.4922 58.7305 33.5469 58.5117 33.6016C58.293 33.6484 58.0195 33.6953 57.6914 33.7422C57.3633 33.7891 56.9688 33.8359 56.5078 33.8828L55.3242 34.0234C55.168 34.2188 54.9727 34.4844 54.7383 34.8203C54.5039 35.1484 54.2422 35.5195 53.9531 35.9336C53.6719 36.3477 53.3711 36.7891 53.0508 37.2578C52.7383 37.7266 52.4219 38.2031 52.1016 38.6875C51.7891 39.1641 51.4844 39.6328 51.1875 40.0938C50.8906 40.5469 50.6211 40.9688 50.3789 41.3594C50.1367 41.7422 49.9297 42.0781 49.7578 42.3672C49.5859 42.6484 49.4648 42.8594 49.3945 43C49.3008 43.1797 49.2266 43.3008 49.1719 43.3633C49.1094 43.4258 49.0586 43.457 49.0195 43.457C48.9805 43.457 48.9453 43.4453 48.9141 43.4219C48.875 43.3984 48.8438 43.3867 48.8203 43.3867C48.7734 43.3867 48.7383 43.3945 48.7148 43.4102C48.6836 43.4258 48.6562 43.4336 48.6328 43.4336C48.5938 43.4336 48.5625 43.4102 48.5391 43.3633C48.5078 43.3242 48.4648 43.2422 48.4102 43.1172C48.3477 42.9844 48.2891 42.8438 48.2344 42.6953C48.1797 42.5391 48.1523 42.375 48.1523 42.2031C48.1523 42.1797 48.1562 42.1328 48.1641 42.0625C48.1719 41.9922 48.1758 41.8242 48.1758 41.5586C48.1758 41.5195 48.1797 41.4844 48.1875 41.4531C48.1875 41.4141 48.1992 41.3633 48.2227 41.3008C48.2773 41.1914 48.3945 41.0039 48.5742 40.7383C48.7539 40.4648 48.9766 40.1406 49.2422 39.7656C49.5078 39.3906 49.8047 38.9766 50.1328 38.5234C50.4688 38.0625 50.8125 37.5859 51.1641 37.0938C51.5234 36.6016 51.8867 36.1055 52.2539 35.6055C52.6211 35.1055 52.9727 34.625 53.3086 34.1641H52.8984C52.5859 34.1641 52.3398 34.1875 52.1602 34.2344C51.9805 34.2734 51.8125 34.293 51.6562 34.293C51.5312 34.293 51.4102 34.2734 51.293 34.2344C51.1758 34.1875 51.0625 34.1094 50.9531 34C50.8906 33.9531 50.8477 33.8828 50.8242 33.7891C50.8008 33.6953 50.7891 33.6055 50.7891 33.5195C50.7891 33.457 50.7969 33.4062 50.8125 33.3672C50.8281 33.3281 50.8594 33.3086 50.9062 33.3086C50.9609 33.3086 51.0039 33.2891 51.0352 33.25C51.0664 33.2109 51.0977 33.168 51.1289 33.1211C51.168 33.0742 51.2148 33.0312 51.2695 32.9922C51.3242 32.9531 51.3984 32.9297 51.4922 32.9219C51.5312 32.9219 51.6367 32.9102 51.8086 32.8867C51.9805 32.8633 52.1992 32.8359 52.4648 32.8047C52.7383 32.7656 53.0469 32.7266 53.3906 32.6875C53.7344 32.6406 54.1016 32.5977 54.4922 32.5586C54.9531 31.9336 55.4141 31.332 55.875 30.7539C56.3359 30.1758 56.7617 29.6602 57.1523 29.207C57.543 28.7461 57.8867 28.3672 58.1836 28.0703C58.4805 27.7734 58.6953 27.5898 58.8281 27.5195C58.9609 27.457 59.0664 27.4258 59.1445 27.4258C59.2148 27.4258 59.2695 27.4492 59.3086 27.4961C59.3477 27.543 59.3867 27.5977 59.4258 27.6602ZM62.918 34.1641C62.918 34.2344 62.8984 34.2812 62.8594 34.3047C62.8281 34.3281 62.7852 34.3438 62.7305 34.3516C62.6758 34.3594 62.6094 34.3672 62.5312 34.375C62.4609 34.3828 62.3906 34.4023 62.3203 34.4336C61.7109 34.6836 61.1445 34.9727 60.6211 35.3008C60.1055 35.6289 59.6367 35.9766 59.2148 36.3438C58.793 36.7031 58.4141 37.0742 58.0781 37.457C57.7422 37.832 57.4531 38.1953 57.2109 38.5469C56.9688 38.8984 56.7695 39.2266 56.6133 39.5312C56.4648 39.8359 56.3594 40.0977 56.2969 40.3164C56.2578 40.4336 56.2344 40.543 56.2266 40.6445C56.2109 40.7383 56.2031 40.8359 56.2031 40.9375C56.2031 41.3125 56.2969 41.5859 56.4844 41.7578C56.5625 41.7812 56.6367 41.7969 56.707 41.8047C56.7773 41.8047 56.8477 41.8047 56.918 41.8047C57.1836 41.8047 57.4844 41.75 57.8203 41.6406C58.1562 41.5234 58.5195 41.332 58.9102 41.0664C59.3086 40.8008 59.7305 40.457 60.1758 40.0352C60.6289 39.6055 61.0977 39.0742 61.582 38.4414C61.9336 37.9805 62.2227 37.5508 62.4492 37.1523C62.6836 36.7461 62.8672 36.3789 63 36.0508C63.1406 35.7148 63.2383 35.418 63.293 35.1602C63.3477 34.9023 63.375 34.6836 63.375 34.5039C63.375 34.3477 63.3594 34.2227 63.3281 34.1289C63.3047 34.0273 63.2734 33.9531 63.2344 33.9062C63.125 33.7734 63.0703 33.6758 63.0703 33.6133C63.0703 33.5742 63.082 33.5469 63.1055 33.5312C63.1367 33.5078 63.1719 33.4883 63.2109 33.4727C63.25 33.4727 63.2695 33.4609 63.2695 33.4375C63.2695 33.4141 63.2891 33.4023 63.3281 33.4023C63.3438 33.4023 63.3711 33.4102 63.4102 33.4258C63.4492 33.4414 63.5117 33.4805 63.5977 33.543C63.6914 33.6133 63.7812 33.6875 63.8672 33.7656C63.9609 33.8359 64.0547 33.9258 64.1484 34.0352C64.2422 34.1445 64.3398 34.2773 64.4414 34.4336C64.543 34.5898 64.6523 34.7891 64.7695 35.0312C64.793 35.0938 64.8125 35.168 64.8281 35.2539C64.8516 35.332 64.8633 35.4258 64.8633 35.5352C64.8633 35.8555 64.7852 36.25 64.6289 36.7188C64.4805 37.1797 64.2656 37.6719 63.9844 38.1953C63.7031 38.7109 63.3633 39.2344 62.9648 39.7656C62.5742 40.2969 62.1328 40.793 61.6406 41.2539C61.1562 41.707 60.6289 42.1016 60.0586 42.4375C59.4961 42.7656 58.9062 42.9922 58.2891 43.1172C58.1328 43.1562 57.9805 43.1797 57.832 43.1875C57.6836 43.2031 57.5469 43.2109 57.4219 43.2109C56.9609 43.2109 56.5898 43.1406 56.3086 43C56.0273 42.8594 55.8164 42.6914 55.6758 42.4961C55.543 42.3867 55.4297 42.2422 55.3359 42.0625C55.2422 41.875 55.1641 41.668 55.1016 41.4414C55.0156 41.1602 54.9727 40.8789 54.9727 40.5977C54.9727 40.082 55.082 39.5586 55.3008 39.0273C55.5195 38.4961 55.8125 37.9805 56.1797 37.4805C56.5391 36.9727 56.9531 36.4922 57.4219 36.0391C57.8906 35.5859 58.375 35.1797 58.875 34.8203C59.3828 34.4531 59.8867 34.1445 60.3867 33.8945C60.8867 33.6367 61.3477 33.457 61.7695 33.3555C61.8867 33.332 62.0078 33.3047 62.1328 33.2734C62.2578 33.2422 62.375 33.2266 62.4844 33.2266C62.7031 33.2266 62.8477 33.293 62.918 33.4258C62.9336 33.457 62.9414 33.5039 62.9414 33.5664C62.9414 33.6289 62.9336 33.6914 62.918 33.7539C62.9023 33.8086 62.8945 33.8906 62.8945 34C62.8945 34.0234 62.8984 34.0469 62.9062 34.0703C62.9141 34.0938 62.918 34.125 62.918 34.1641ZM73.1016 32.2422C73.0547 32.3359 72.9688 32.4648 72.8438 32.6289C72.7188 32.7852 72.5703 32.9609 72.3984 33.1562C72.2266 33.3516 72.0391 33.5625 71.8359 33.7891C71.6406 34.0078 71.4492 34.2305 71.2617 34.457C71.5195 34.3008 71.7812 34.1484 72.0469 34C72.3203 33.8516 72.5859 33.7188 72.8438 33.6016C73.1094 33.4844 73.3594 33.3906 73.5938 33.3203C73.8359 33.2422 74.0586 33.2031 74.2617 33.2031C74.3008 33.2031 74.3359 33.207 74.3672 33.2148C74.3984 33.2227 74.4336 33.2266 74.4727 33.2266C74.6758 33.2656 74.875 33.375 75.0703 33.5547C75.2734 33.7266 75.418 33.9648 75.5039 34.2695C75.6289 34.4414 75.6914 34.6719 75.6914 34.9609C75.6914 35.3359 75.5977 35.7422 75.4102 36.1797C75.2305 36.6172 74.9844 37.0664 74.6719 37.5273C74.3594 37.9883 73.9961 38.4531 73.582 38.9219C73.168 39.3828 72.7305 39.8281 72.2695 40.2578C71.8164 40.6875 71.3516 41.0898 70.875 41.4648C70.3984 41.832 69.9414 42.1562 69.5039 42.4375C69.0664 42.7109 68.6602 42.9258 68.2852 43.082C67.9102 43.2383 67.5977 43.3164 67.3477 43.3164C67.1602 43.3164 66.9766 43.2852 66.7969 43.2227C66.625 43.168 66.4688 43.0859 66.3281 42.9766C66.1953 42.8594 66.0859 42.7188 66 42.5547C65.9219 42.3828 65.8828 42.1875 65.8828 41.9688C65.8828 41.6875 65.9766 41.4219 66.1641 41.1719C66.4062 40.8672 66.6016 40.7148 66.75 40.7148C66.7734 40.7148 66.793 40.7305 66.8086 40.7617C66.832 40.7852 66.8438 40.8516 66.8438 40.9609C66.8438 41.0469 66.8672 41.1172 66.9141 41.1719C66.9688 41.2188 67.0625 41.2422 67.1953 41.2422C67.3203 41.2422 67.4805 41.2188 67.6758 41.1719C67.8789 41.125 68.1133 41.0312 68.3789 40.8906C68.7539 40.6797 69.168 40.418 69.6211 40.1055C70.0742 39.793 70.5273 39.457 70.9805 39.0977C71.4336 38.7305 71.8711 38.3516 72.293 37.9609C72.7148 37.5625 73.0898 37.1758 73.418 36.8008C73.7461 36.418 74.0078 36.0586 74.2031 35.7227C74.3984 35.3789 74.4961 35.0781 74.4961 34.8203C74.4961 34.7812 74.4922 34.7461 74.4844 34.7148C74.4766 34.6758 74.4648 34.6367 74.4492 34.5977C74.3633 34.5352 74.2344 34.5039 74.0625 34.5039C73.7891 34.5039 73.457 34.582 73.0664 34.7383C72.6758 34.8867 72.2578 35.0859 71.8125 35.3359C71.3672 35.5781 70.9102 35.8555 70.4414 36.168C69.9805 36.4727 69.5469 36.7812 69.1406 37.0938C68.5391 37.875 67.9844 38.6094 67.4766 39.2969C66.9688 39.9844 66.5078 40.6094 66.0938 41.1719C65.7734 41.6016 65.4141 42.0898 65.0156 42.6367C64.6172 43.1758 64.2109 43.7266 63.7969 44.2891C63.3828 44.8594 62.9766 45.418 62.5781 45.9648C62.1797 46.5117 61.8242 47 61.5117 47.4297C61.1914 47.8672 60.9297 48.2305 60.7266 48.5195C60.5156 48.8086 60.3945 48.9766 60.3633 49.0234C60.3164 49.0938 60.2695 49.1445 60.2227 49.1758C60.1758 49.2148 60.1289 49.2383 60.082 49.2461C60.0352 49.2617 59.9844 49.2734 59.9297 49.2812C59.875 49.2969 59.8125 49.3164 59.7422 49.3398C59.7266 49.3555 59.6992 49.3633 59.6602 49.3633C59.6133 49.3633 59.582 49.332 59.5664 49.2695C59.543 49.207 59.5273 49.1367 59.5195 49.0586C59.5039 48.9805 59.4883 48.9023 59.4727 48.8242C59.4492 48.7539 59.418 48.707 59.3789 48.6836C59.293 48.6445 59.2305 48.5781 59.1914 48.4844C59.1523 48.3984 59.1328 48.3125 59.1328 48.2266C59.1328 48.1797 59.1406 48.1406 59.1562 48.1094C59.1562 48 59.1445 47.8828 59.1211 47.7578C59.0977 47.6406 59.0859 47.4805 59.0859 47.2773C59.0859 47.2539 59.0938 47.2227 59.1094 47.1836C59.1172 47.1523 59.1445 47.0977 59.1914 47.0195C59.2383 46.9414 59.3086 46.8359 59.4023 46.7031C59.4883 46.5703 59.6094 46.3984 59.7656 46.1875C59.9297 45.9609 60.1875 45.625 60.5391 45.1797C60.8906 44.7422 61.2969 44.2422 61.7578 43.6797C62.2109 43.125 62.6914 42.5391 63.1992 41.9219C63.707 41.2969 64.1992 40.6953 64.6758 40.1172C65.1523 39.5391 65.5898 39.0078 65.9883 38.5234C66.3867 38.0312 66.7031 37.6367 66.9375 37.3398C67.1719 37.043 67.4609 36.6797 67.8047 36.25C68.1562 35.8125 68.5273 35.3594 68.918 34.8906C69.3164 34.4141 69.7188 33.9453 70.125 33.4844C70.5391 33.0156 70.9219 32.5977 71.2734 32.2305C71.6328 31.8555 71.9453 31.5547 72.2109 31.3281C72.4766 31.0938 72.6641 30.9766 72.7734 30.9766C72.9609 30.9766 73.0898 31.0352 73.1602 31.1523C73.2383 31.2617 73.2773 31.3945 73.2773 31.5508C73.2773 31.6758 73.2578 31.8008 73.2188 31.9258C73.1797 32.043 73.1406 32.1484 73.1016 32.2422ZM95.1562 26.5352C95.2734 26.5508 95.3555 26.5938 95.4023 26.6641C95.457 26.7344 95.4844 26.8203 95.4844 26.9219C95.4844 27.0547 95.4453 27.1953 95.3672 27.3438C95.2891 27.4922 95.1602 27.6562 94.9805 27.8359C94.2852 28.5078 93.6641 29.1133 93.1172 29.6523C92.5781 30.1836 92.0859 30.6797 91.6406 31.1406C91.1953 31.5938 90.7891 32.0234 90.4219 32.4297C90.0547 32.8359 89.6992 33.2422 89.3555 33.6484C89.0195 34.0469 88.6797 34.4609 88.3359 34.8906C87.9922 35.3203 87.625 35.7852 87.2344 36.2852C87.5703 36.2539 87.9297 36.2266 88.3125 36.2031C88.6953 36.1719 89.0859 36.1562 89.4844 36.1562C89.8047 36.1562 90.1094 36.168 90.3984 36.1914C90.6953 36.2148 90.9688 36.2539 91.2188 36.3086C91.4297 35.7305 91.6953 35.0859 92.0156 34.375C92.3359 33.6562 92.6758 32.9297 93.0352 32.1953C93.4023 31.4609 93.7656 30.7461 94.125 30.0508C94.4922 29.3477 94.8203 28.7227 95.1094 28.1758C95.4062 27.6211 95.6484 27.168 95.8359 26.8164C96.0234 26.4648 96.125 26.2734 96.1406 26.2422C96.1406 26.2266 96.1641 26.2188 96.2109 26.2188C96.2344 26.2188 96.2656 26.2227 96.3047 26.2305C96.3438 26.2383 96.3828 26.2422 96.4219 26.2422C96.4375 26.2422 96.4492 26.2383 96.457 26.2305C96.4648 26.2227 96.4766 26.2188 96.4922 26.2188H96.5508C96.5977 26.2188 96.6406 26.2383 96.6797 26.2773C96.7266 26.3086 96.7695 26.332 96.8086 26.3477C96.9414 26.418 97.0547 26.4883 97.1484 26.5586C97.2422 26.6211 97.2891 26.7266 97.2891 26.875C97.2891 26.8984 97.2891 26.9258 97.2891 26.957C97.2891 26.9883 97.2812 27.0234 97.2656 27.0625C97.25 27.1328 97.1758 27.332 97.043 27.6602C96.918 27.9883 96.7539 28.3984 96.5508 28.8906C96.3477 29.3828 96.1133 29.9375 95.8477 30.5547C95.5898 31.1719 95.3164 31.8047 95.0273 32.4531C94.7461 33.1016 94.4609 33.7461 94.1719 34.3867C93.8906 35.0195 93.625 35.6016 93.375 36.1328C93.2109 36.4766 92.875 37.2148 92.3672 38.3477C91.8672 39.4727 91.1797 41.0078 90.3047 42.9531C90.2812 43.0156 90.25 43.0547 90.2109 43.0703C90.1719 43.0859 90.1328 43.0938 90.0938 43.0938C90.0547 43.0938 90.0156 43.0898 89.9766 43.082C89.9453 43.0742 89.918 43.0703 89.8945 43.0703C89.8555 43.0703 89.8242 43.0938 89.8008 43.1406C89.7461 43.2422 89.668 43.293 89.5664 43.293C89.4727 43.293 89.4141 43.2656 89.3906 43.2109C89.3516 43.1484 89.2852 43.0898 89.1914 43.0352C89.1055 42.9805 89.043 42.8984 89.0039 42.7891C88.9883 42.7422 88.9688 42.6992 88.9453 42.6602C88.9219 42.6211 88.8984 42.5781 88.875 42.5312C88.8594 42.4766 88.8438 42.418 88.8281 42.3555C88.8203 42.2852 88.8164 42.1953 88.8164 42.0859C88.8164 41.9453 88.8164 41.8398 88.8164 41.7695C88.8242 41.6992 88.8281 41.6445 88.8281 41.6055C88.8359 41.5586 88.8438 41.5273 88.8516 41.5117C88.8594 41.4883 88.8711 41.457 88.8867 41.418C89.2148 40.5898 89.5078 39.8867 89.7656 39.3086C90.0312 38.7305 90.2578 38.2422 90.4453 37.8438C90.125 37.875 89.7617 37.9062 89.3555 37.9375C88.957 37.9609 88.5469 37.9844 88.125 38.0078C87.7031 38.0312 87.2852 38.0586 86.8711 38.0898C86.4648 38.1133 86.0977 38.1406 85.7695 38.1719C85.6289 38.3438 85.4453 38.5625 85.2188 38.8281C85 39.0938 84.7617 39.375 84.5039 39.6719C84.2539 39.9609 84 40.2539 83.7422 40.5508C83.4844 40.8477 83.25 41.1211 83.0391 41.3711C82.8281 41.6133 82.6523 41.8164 82.5117 41.9805C82.3711 42.1445 82.2969 42.2383 82.2891 42.2617C82.2188 42.3633 82.1289 42.4805 82.0195 42.6133C81.9023 42.7461 81.7891 42.875 81.6797 43C81.5625 43.1172 81.457 43.2188 81.3633 43.3047C81.2617 43.3906 81.1875 43.4336 81.1406 43.4336C81.0781 43.4336 81.0352 43.3828 81.0117 43.2812C80.9883 43.1875 80.957 43.0938 80.918 43C80.8555 42.8672 80.7969 42.7422 80.7422 42.625C80.6797 42.5 80.6289 42.3789 80.5898 42.2617C80.5898 42.2461 80.5859 42.2305 80.5781 42.2148C80.5703 42.1992 80.5664 42.1797 80.5664 42.1562C80.5664 42.0781 80.582 41.9844 80.6133 41.875C80.6445 41.7578 80.6836 41.6406 80.7305 41.5234C80.7695 41.4062 80.8125 41.3008 80.8594 41.207C80.9062 41.1055 80.9492 41.0312 80.9883 40.9844C81.3164 40.5391 81.6406 40.1055 81.9609 39.6836C82.2734 39.2617 82.5977 38.8398 82.9336 38.418C82.7461 38.418 82.6094 38.4141 82.5234 38.4062C82.4453 38.3906 82.3984 38.3633 82.3828 38.3242C82.3672 38.2695 82.3398 38.2344 82.3008 38.2188C82.2695 38.2031 82.2383 38.1953 82.207 38.1953C82.168 38.1875 82.1367 38.1758 82.1133 38.1602C82.0898 38.1445 82.0781 38.1094 82.0781 38.0547C82.0781 38.0078 82.082 37.9492 82.0898 37.8789C82.0898 37.8008 82.0977 37.7227 82.1133 37.6445C82.1211 37.5664 82.1367 37.4961 82.1602 37.4336C82.1758 37.3711 82.1953 37.332 82.2188 37.3164C82.2891 37.2383 82.418 37.1641 82.6055 37.0938C82.793 37.0156 83.0312 36.9219 83.3203 36.8125C83.5469 36.7344 83.9219 36.6602 84.4453 36.5898C85.2891 35.5977 86.125 34.6602 86.9531 33.7773C87.7812 32.8945 88.5742 32.0859 89.332 31.3516C90.0898 30.6094 90.793 29.9453 91.4414 29.3594C92.0977 28.7734 92.6719 28.2773 93.1641 27.8711C93.6641 27.457 94.0664 27.1406 94.3711 26.9219C94.6836 26.6953 94.8711 26.5742 94.9336 26.5586C94.9727 26.5586 95.0078 26.5547 95.0391 26.5469C95.0781 26.5391 95.1172 26.5352 95.1562 26.5352ZM101.543 32.6055C101.543 32.668 101.555 32.7305 101.578 32.793C101.609 32.8555 101.625 32.9297 101.625 33.0156C101.625 33.125 101.574 33.2539 101.473 33.4023C101.426 33.4648 101.344 33.5703 101.227 33.7188C101.109 33.8594 100.973 34.0312 100.816 34.2344C100.66 34.4297 100.488 34.6523 100.301 34.9023C100.121 35.1445 99.9375 35.3945 99.75 35.6523C100.094 35.3633 100.477 35.0469 100.898 34.7031C101.32 34.3594 101.746 34.0391 102.176 33.7422C102.613 33.4453 103.035 33.1992 103.441 33.0039C103.855 32.8008 104.223 32.6992 104.543 32.6992C104.621 32.6992 104.684 32.707 104.73 32.7227C104.785 32.7305 104.844 32.7422 104.906 32.7578L105.152 32.8984C105.309 33.0156 105.426 33.1797 105.504 33.3906C105.59 33.6016 105.633 33.7969 105.633 33.9766C105.633 34.1641 105.578 34.3789 105.469 34.6211C105.359 34.8633 105.227 35.1055 105.07 35.3477C104.914 35.5898 104.75 35.8164 104.578 36.0273C104.406 36.2305 104.262 36.3867 104.145 36.4961C104.027 36.6055 103.906 36.7148 103.781 36.8242C103.664 36.9336 103.547 37.0352 103.43 37.1289C103.32 37.2148 103.215 37.2891 103.113 37.3516C103.02 37.4062 102.938 37.4336 102.867 37.4336C102.781 37.4336 102.715 37.4258 102.668 37.4102C102.629 37.3867 102.602 37.3633 102.586 37.3398C102.562 37.3086 102.551 37.2734 102.551 37.2344C102.551 37.1953 102.535 37.1797 102.504 37.1875C102.48 37.1875 102.457 37.1875 102.434 37.1875C102.41 37.1875 102.387 37.1875 102.363 37.1875C102.34 37.1797 102.316 37.1641 102.293 37.1406C102.207 37.1016 102.148 37.0391 102.117 36.9531C102.086 36.8672 102.062 36.7461 102.047 36.5898C102.047 36.3945 102.059 36.2578 102.082 36.1797C102.113 36.1016 102.16 36.0391 102.223 35.9922C102.293 35.9375 102.348 35.8945 102.387 35.8633C102.434 35.8242 102.48 35.7852 102.527 35.7461C102.574 35.6992 102.625 35.6523 102.68 35.6055C102.742 35.5508 102.82 35.4805 102.914 35.3945C103.266 35.0977 103.531 34.8164 103.711 34.5508C103.898 34.2852 104 34.0625 104.016 33.8828C103.875 33.8984 103.672 33.9727 103.406 34.1055C103.148 34.2383 102.812 34.4609 102.398 34.7734C101.992 35.0781 101.5 35.4883 100.922 36.0039C100.352 36.5195 99.6797 37.1641 98.9062 37.9375C98.6953 38.1484 98.4219 38.4453 98.0859 38.8281C97.75 39.2031 97.3984 39.6055 97.0312 40.0352C96.6719 40.4648 96.3203 40.8867 95.9766 41.3008C95.6328 41.707 95.3477 42.0508 95.1211 42.332L94.4648 43.2109C94.418 43.2656 94.375 43.3086 94.3359 43.3398C94.2969 43.3711 94.2461 43.3867 94.1836 43.3867C94.0977 43.3867 94 43.3359 93.8906 43.2344C93.8281 43.1797 93.793 43.1133 93.7852 43.0352C93.7695 42.9648 93.7266 42.8555 93.6562 42.707C93.5781 42.5742 93.5273 42.4609 93.5039 42.3672C93.4727 42.2656 93.4492 42.1719 93.4336 42.0859C93.4336 42.0625 93.4375 42.0391 93.4453 42.0156C93.4531 41.9922 93.4648 41.9609 93.4805 41.9219C93.5273 41.8203 93.6562 41.582 93.8672 41.207C94.0703 40.8242 94.3594 40.3672 94.7344 39.8359C94.8281 39.7109 94.9766 39.5117 95.1797 39.2383C95.3828 38.957 95.6211 38.6367 95.8945 38.2773C96.168 37.918 96.4688 37.5273 96.7969 37.1055C97.125 36.6758 97.457 36.25 97.793 35.8281C98.1289 35.3984 98.4609 34.9805 98.7891 34.5742C99.125 34.168 99.4336 33.8047 99.7148 33.4844C100.004 33.1562 100.258 32.8828 100.477 32.6641C100.695 32.4375 100.859 32.2969 100.969 32.2422L101.121 32.1953C101.16 32.1953 101.176 32.2109 101.168 32.2422C101.168 32.2734 101.191 32.3008 101.238 32.3242C101.324 32.3477 101.391 32.3789 101.438 32.418C101.492 32.457 101.527 32.5195 101.543 32.6055ZM114.621 27.6602C114.637 27.6836 114.648 27.7109 114.656 27.7422C114.672 27.7656 114.68 27.7891 114.68 27.8125C114.68 27.9219 114.652 28.0156 114.598 28.0938C114.551 28.1719 114.527 28.2539 114.527 28.3398C114.543 28.3398 114.57 28.3242 114.609 28.293C114.656 28.2539 114.688 28.2344 114.703 28.2344H114.715V28.2461C114.715 28.2539 114.719 28.2617 114.727 28.2695C114.727 28.2852 114.711 28.3203 114.68 28.375C114.648 28.4219 114.59 28.5039 114.504 28.6211L111.797 32.3008C112.352 32.2383 112.867 32.1914 113.344 32.1602C113.82 32.1211 114.207 32.1016 114.504 32.1016C114.613 32.1016 114.715 32.1367 114.809 32.207C114.91 32.2695 114.961 32.3555 114.961 32.4648C114.961 32.543 114.93 32.6133 114.867 32.6758C114.805 32.7383 114.75 32.8164 114.703 32.9102C114.656 32.9961 114.582 33.1133 114.48 33.2617C114.426 33.3242 114.336 33.3828 114.211 33.4375C114.094 33.4922 113.926 33.5469 113.707 33.6016C113.488 33.6484 113.215 33.6953 112.887 33.7422C112.559 33.7891 112.164 33.8359 111.703 33.8828L110.52 34.0234C110.363 34.2188 110.168 34.4844 109.934 34.8203C109.699 35.1484 109.438 35.5195 109.148 35.9336C108.867 36.3477 108.566 36.7891 108.246 37.2578C107.934 37.7266 107.617 38.2031 107.297 38.6875C106.984 39.1641 106.68 39.6328 106.383 40.0938C106.086 40.5469 105.816 40.9688 105.574 41.3594C105.332 41.7422 105.125 42.0781 104.953 42.3672C104.781 42.6484 104.66 42.8594 104.59 43C104.496 43.1797 104.422 43.3008 104.367 43.3633C104.305 43.4258 104.254 43.457 104.215 43.457C104.176 43.457 104.141 43.4453 104.109 43.4219C104.07 43.3984 104.039 43.3867 104.016 43.3867C103.969 43.3867 103.934 43.3945 103.91 43.4102C103.879 43.4258 103.852 43.4336 103.828 43.4336C103.789 43.4336 103.758 43.4102 103.734 43.3633C103.703 43.3242 103.66 43.2422 103.605 43.1172C103.543 42.9844 103.484 42.8438 103.43 42.6953C103.375 42.5391 103.348 42.375 103.348 42.2031C103.348 42.1797 103.352 42.1328 103.359 42.0625C103.367 41.9922 103.371 41.8242 103.371 41.5586C103.371 41.5195 103.375 41.4844 103.383 41.4531C103.383 41.4141 103.395 41.3633 103.418 41.3008C103.473 41.1914 103.59 41.0039 103.77 40.7383C103.949 40.4648 104.172 40.1406 104.438 39.7656C104.703 39.3906 105 38.9766 105.328 38.5234C105.664 38.0625 106.008 37.5859 106.359 37.0938C106.719 36.6016 107.082 36.1055 107.449 35.6055C107.816 35.1055 108.168 34.625 108.504 34.1641H108.094C107.781 34.1641 107.535 34.1875 107.355 34.2344C107.176 34.2734 107.008 34.293 106.852 34.293C106.727 34.293 106.605 34.2734 106.488 34.2344C106.371 34.1875 106.258 34.1094 106.148 34C106.086 33.9531 106.043 33.8828 106.02 33.7891C105.996 33.6953 105.984 33.6055 105.984 33.5195C105.984 33.457 105.992 33.4062 106.008 33.3672C106.023 33.3281 106.055 33.3086 106.102 33.3086C106.156 33.3086 106.199 33.2891 106.23 33.25C106.262 33.2109 106.293 33.168 106.324 33.1211C106.363 33.0742 106.41 33.0312 106.465 32.9922C106.52 32.9531 106.594 32.9297 106.688 32.9219C106.727 32.9219 106.832 32.9102 107.004 32.8867C107.176 32.8633 107.395 32.8359 107.66 32.8047C107.934 32.7656 108.242 32.7266 108.586 32.6875C108.93 32.6406 109.297 32.5977 109.688 32.5586C110.148 31.9336 110.609 31.332 111.07 30.7539C111.531 30.1758 111.957 29.6602 112.348 29.207C112.738 28.7461 113.082 28.3672 113.379 28.0703C113.676 27.7734 113.891 27.5898 114.023 27.5195C114.156 27.457 114.262 27.4258 114.34 27.4258C114.41 27.4258 114.465 27.4492 114.504 27.4961C114.543 27.543 114.582 27.5977 114.621 27.6602Z"
     fill="white"
     id="path2"
     style="stroke:#fdfdfd;stroke-opacity:1;stroke-width:0.9;stroke-dasharray:none" />
</svg>
